<svg width="488" height="428" viewBox="0 0 488 428" fill="none" xmlns="http://www.w3.org/2000/svg">
<path fill-rule="evenodd" clip-rule="evenodd" d="M-2 0H488V428H-2V0ZM-1.23438 0.764286H58.4844V60.3786H-1.23438V0.764286ZM60.0156 0.764286H119.734V60.3786H60.0156V0.764286ZM180.984 0.764286H121.266V60.3786H180.984V0.764286ZM182.516 0.764286H242.234V60.3786H182.516V0.764286ZM303.484 0.764286H243.766V60.3786H303.484V0.764286ZM305.016 0.764286H364.734V60.3786H305.016V0.764286ZM425.984 0.764286H366.266V60.3786H425.984V0.764286ZM427.516 0.764286H487.234V60.3786H427.516V0.764286ZM58.4844 61.9071H-1.23438V121.521H58.4844V61.9071ZM60.0156 61.9071H119.734V121.521H60.0156V61.9071ZM180.984 61.9071H121.266V121.521H180.984V61.9071ZM182.516 61.9071H242.234V121.521H182.516V61.9071ZM303.484 61.9071H243.766V121.521H303.484V61.9071ZM305.016 61.9071H364.734V121.521H305.016V61.9071ZM425.984 61.9071H366.266V121.521H425.984V61.9071ZM427.516 61.9071H487.234V121.521H427.516V61.9071ZM58.4844 123.05H-1.23438V182.664H58.4844V123.05ZM60.0156 123.05H119.734V182.664H60.0156V123.05ZM180.984 123.05H121.266V182.664H180.984V123.05ZM182.516 123.05H242.234V182.664H182.516V123.05ZM303.484 123.05H243.766V182.664H303.484V123.05ZM305.016 123.05H364.734V182.664H305.016V123.05ZM425.984 123.05H366.266V182.664H425.984V123.05ZM427.516 123.05H487.234V182.664H427.516V123.05ZM58.4844 184.193H-1.23438V243.807H58.4844V184.193ZM60.0156 184.193H119.734V243.807H60.0156V184.193ZM180.984 184.193H121.266V243.807H180.984V184.193ZM182.516 184.193H242.234V243.807H182.516V184.193ZM303.484 184.193H243.766V243.807H303.484V184.193ZM305.016 184.193H364.734V243.807H305.016V184.193ZM425.984 184.193H366.266V243.807H425.984V184.193ZM427.516 184.193H487.234V243.807H427.516V184.193ZM58.4844 245.336H-1.23438V304.95H58.4844V245.336ZM60.0156 245.336H119.734V304.95H60.0156V245.336ZM180.984 245.336H121.266V304.95H180.984V245.336ZM182.516 245.336H242.234V304.95H182.516V245.336ZM303.484 245.336H243.766V304.95H303.484V245.336ZM305.016 245.336H364.734V304.95H305.016V245.336ZM425.984 245.336H366.266V304.95H425.984V245.336ZM427.516 245.336H487.234V304.95H427.516V245.336ZM58.4844 306.479H-1.23438V366.093H58.4844V306.479ZM60.0156 306.479H119.734V366.093H60.0156V306.479ZM180.984 306.479H121.266V366.093H180.984V306.479ZM182.516 306.479H242.234V366.093H182.516V306.479ZM303.484 306.479H243.766V366.093H303.484V306.479ZM305.016 306.479H364.734V366.093H305.016V306.479ZM425.984 306.479H366.266V366.093H425.984V306.479ZM427.516 306.479H487.234V366.093H427.516V306.479ZM58.4844 367.621H-1.23438V427.236H58.4844V367.621ZM60.0156 367.621H119.734V427.236H60.0156V367.621ZM180.984 367.621H121.266V427.236H180.984V367.621ZM182.516 367.621H242.234V427.236H182.516V367.621ZM303.484 367.621H243.766V427.236H303.484V367.621ZM305.016 367.621H364.734V427.236H305.016V367.621ZM425.984 367.621H366.266V427.236H425.984V367.621ZM427.516 367.621H487.234V427.236H427.516V367.621Z" fill="url(#paint0_linear_4303_467)"/>
<defs>
<linearGradient id="paint0_linear_4303_467" x1="-70" y1="-35.5" x2="243" y2="428" gradientUnits="userSpaceOnUse">
<stop stop-color="white"/>
<stop offset="0.657437" stop-color="white" stop-opacity="0"/>
</linearGradient>
</defs>
</svg>
