<svg width="197" height="191" viewBox="0 0 197 191" fill="none" xmlns="http://www.w3.org/2000/svg">
<path d="M60.1012 1.41208C60.7299 1.14322 61.362 0.880734 61.9974 0.624695H135.418C136.053 0.880734 136.685 1.14322 137.314 1.41208H60.1012Z" fill="#FFC93E"/>
<path d="M45.3271 9.28589C45.7367 9.02046 46.1484 8.75799 46.5621 8.49851H150.853C151.267 8.75799 151.679 9.02046 152.088 9.28589H45.3271Z" fill="#FFC93E"/>
<path d="M34.7902 17.1597C35.0988 16.8954 35.409 16.6329 35.7208 16.3723H161.694C162.006 16.6329 162.317 16.8954 162.625 17.1597H34.7902Z" fill="#FFC93E"/>
<path d="M26.6016 25.0335C26.8462 24.7697 27.0922 24.5073 27.3396 24.2461H170.076C170.323 24.5073 170.569 24.7697 170.814 25.0335H26.6016Z" fill="#FFC93E"/>
<path d="M20.027 32.9073C20.2247 32.6439 20.4238 32.3814 20.6241 32.12H176.791C176.992 32.3814 177.191 32.6439 177.388 32.9073H20.027Z" fill="#FFC93E"/>
<path d="M14.6907 40.7812C14.8512 40.5179 15.0128 40.2554 15.1757 39.9938H182.24C182.402 40.2554 182.564 40.5179 182.725 40.7812H14.6907Z" fill="#FFC93E"/>
<path d="M10.3722 48.655C10.5013 48.3919 10.6314 48.1294 10.7627 47.8676H186.653C186.784 48.1294 186.914 48.3919 187.043 48.655H10.3722Z" fill="#FFC93E"/>
<path d="M6.93101 56.5288C7.03245 56.2658 7.13498 56.0033 7.23861 55.7414H190.177C190.28 56.0033 190.383 56.2658 190.484 56.5288H6.93101Z" fill="#FFC93E"/>
<path d="M4.27284 64.4026C4.34931 64.1397 4.42685 63.8772 4.50545 63.6152H192.91C192.988 63.8772 193.066 64.1397 193.142 64.4026H4.27284Z" fill="#FFC93E"/>
<path d="M2.33299 72.2764C2.3863 72.0136 2.44066 71.7511 2.49605 71.4891H194.919C194.975 71.7511 195.029 72.0136 195.082 72.2764H2.33299Z" fill="#FFC93E"/>
<path d="M1.06658 80.1503C1.09798 79.8875 1.13041 79.625 1.16388 79.3629H196.251C196.285 79.625 196.317 79.8875 196.349 80.1503H1.06658Z" fill="#FFC93E"/>
<path d="M0.443031 88.0241C0.453357 87.7613 0.464713 87.4989 0.477093 87.2367H196.938C196.951 87.4989 196.962 87.7613 196.972 88.0241H0.443031Z" fill="#FFC93E"/>
<path d="M0.443031 95.8979C0.432725 95.6357 0.423444 95.3732 0.415192 95.1105H197C196.992 95.3732 196.983 95.6357 196.972 95.8979H0.443031Z" fill="#FFC93E"/>
<path d="M1.06658 103.772C1.03525 103.51 1.00496 103.247 0.975697 102.984H196.44C196.41 103.247 196.38 103.51 196.349 103.772H1.06658Z" fill="#FFC93E"/>
<path d="M2.33299 111.646C2.27983 111.383 2.22772 111.121 2.17664 110.858H195.239C195.188 111.121 195.135 111.383 195.082 111.646H2.33299Z" fill="#FFC93E"/>
<path d="M4.27284 119.519C4.19664 119.257 4.12149 118.995 4.04741 118.732H193.368C193.294 118.995 193.219 119.257 193.142 119.519H4.27284Z" fill="#FFC93E"/>
<path d="M6.93101 127.393C6.82998 127.131 6.73005 126.869 6.63121 126.606H190.784C190.685 126.869 190.585 127.131 190.484 127.393H6.93101Z" fill="#FFC93E"/>
<path d="M10.3722 135.267C10.2439 135.005 10.1166 134.743 9.99049 134.48H187.425C187.299 134.743 187.171 135.005 187.043 135.267H10.3722Z" fill="#FFC93E"/>
<path d="M14.6907 143.141C14.5312 142.879 14.3729 142.617 14.2158 142.353H183.199C183.042 142.617 182.884 142.879 182.725 143.141H14.6907Z" fill="#FFC93E"/>
<path d="M20.027 151.015C19.8307 150.753 19.6358 150.491 19.4421 150.227H177.973C177.78 150.491 177.585 150.753 177.388 151.015H20.027Z" fill="#FFC93E"/>
<path d="M26.6016 158.888C26.3595 158.627 26.1188 158.365 25.8795 158.101H171.536C171.296 158.365 171.056 158.627 170.814 158.888H26.6016Z" fill="#FFC93E"/>
<path d="M34.7902 166.762C34.486 166.502 34.1833 166.239 33.8823 165.975H163.533C163.232 166.239 162.929 166.502 162.625 166.762H34.7902Z" fill="#FFC93E"/>
<path d="M45.3271 174.636C44.9265 174.376 44.5278 174.114 44.1313 173.849H153.284C152.887 174.114 152.489 174.376 152.088 174.636H45.3271Z" fill="#FFC93E"/>
<path d="M60.1012 182.51C59.5009 182.253 58.9038 181.991 58.3097 181.723H139.106C138.512 181.991 137.914 182.253 137.314 182.51H60.1012Z" fill="#FFC93E"/>
<path d="M111.206 189.596C107.113 190.116 102.942 190.384 98.7076 190.384C94.4736 190.384 90.3021 190.116 86.209 189.596H111.206Z" fill="#FFC93E"/>
</svg>
