<svg width="117" height="32" viewBox="0 0 117 32" fill="none" xmlns="http://www.w3.org/2000/svg">
<path d="M9.08532 0C13.7399 0 17.3054 0.835431 19.7818 2.50629C22.2583 4.14732 23.4965 6.71329 23.4965 10.2042C23.4965 12.3823 22.9893 14.1576 21.9748 15.5301C20.9902 16.8727 19.558 17.9319 17.6783 18.7077C18.3049 19.4834 18.9613 20.3786 19.6476 21.393C20.3338 22.3776 21.0051 23.4219 21.6615 24.5259C22.3478 25.6 23.0042 26.7338 23.6308 27.9273C24.2573 29.0909 24.8392 30.2396 25.3762 31.3734H17.5441C16.9772 30.359 16.3953 29.3296 15.7986 28.2853C15.2317 27.241 14.635 26.2266 14.0084 25.242C13.4117 24.2573 12.8149 23.3324 12.2182 22.4671C11.6214 21.572 11.0247 20.7664 10.428 20.0503H6.98182V31.3734H0V0.805594C1.52168 0.507226 3.08811 0.298368 4.6993 0.179021C6.34033 0.0596733 7.80233 0 9.08532 0ZM9.48811 5.95245C8.98089 5.95245 8.51841 5.96737 8.1007 5.9972C7.71282 6.02704 7.33986 6.05688 6.98182 6.08671V14.5007H8.95105C11.5767 14.5007 13.4564 14.1725 14.5902 13.5161C15.724 12.8597 16.2909 11.7408 16.2909 10.1594C16.2909 8.63776 15.7091 7.56364 14.5455 6.93706C13.4117 6.28065 11.7259 5.95245 9.48811 5.95245Z" fill="#111D5E"/>
<path d="M27.1486 19.7818C27.1486 17.6932 27.4619 15.8732 28.0885 14.3217C28.7449 12.7403 29.5952 11.4275 30.6395 10.3832C31.6838 9.33893 32.8773 8.54825 34.2199 8.01119C35.5924 7.47413 36.9948 7.20559 38.4269 7.20559C41.7687 7.20559 44.4092 8.23497 46.3486 10.2937C48.288 12.3226 49.2577 15.3212 49.2577 19.2895C49.2577 19.6774 49.2428 20.11 49.2129 20.5874C49.1831 21.035 49.1533 21.4378 49.1234 21.7958H33.9962C34.1453 23.1683 34.7868 24.2573 35.9206 25.0629C37.0544 25.8685 38.5761 26.2713 40.4857 26.2713C41.709 26.2713 42.9025 26.1669 44.0661 25.958C45.2596 25.7193 46.2293 25.4359 46.9752 25.1077L47.8703 30.5231C47.5122 30.7021 47.0349 30.8811 46.4381 31.0601C45.8414 31.2392 45.17 31.3883 44.4241 31.5077C43.708 31.6569 42.9323 31.7762 42.0969 31.8657C41.2614 31.9552 40.426 32 39.5906 32C37.4721 32 35.6223 31.6867 34.0409 31.0601C32.4894 30.4336 31.1915 29.5832 30.1472 28.5091C29.1327 27.4051 28.3719 26.1072 27.8647 24.6154C27.3873 23.1235 27.1486 21.5124 27.1486 19.7818ZM42.8129 17.2308C42.7831 16.6639 42.6787 16.1119 42.4997 15.5748C42.3505 15.0378 42.0969 14.5604 41.7388 14.1427C41.4106 13.7249 40.978 13.3818 40.4409 13.1133C39.9337 12.8448 39.2922 12.7105 38.5164 12.7105C37.7705 12.7105 37.129 12.8448 36.592 13.1133C36.0549 13.352 35.6073 13.6802 35.2493 14.0979C34.8913 14.5156 34.6078 15.0079 34.399 15.5748C34.2199 16.1119 34.0857 16.6639 33.9962 17.2308H42.8129Z" fill="#111D5E"/>
<path d="M63.3997 26.7189C64.0561 26.7189 64.6826 26.704 65.2794 26.6741C65.8761 26.6443 66.3535 26.5995 66.7115 26.5399V21.4825C66.443 21.4228 66.0402 21.3632 65.5032 21.3035C64.9661 21.2438 64.4738 21.214 64.0262 21.214C63.3997 21.214 62.8029 21.2587 62.236 21.3482C61.699 21.4079 61.2216 21.5422 60.8039 21.751C60.3861 21.9599 60.0579 22.2434 59.8192 22.6014C59.5805 22.9594 59.4612 23.407 59.4612 23.9441C59.4612 24.9883 59.8043 25.7193 60.4906 26.1371C61.2066 26.5249 62.1763 26.7189 63.3997 26.7189ZM62.8626 7.20559C64.8318 7.20559 66.4728 7.42937 67.7857 7.87692C69.0985 8.32447 70.1428 8.96597 70.9185 9.8014C71.7241 10.6368 72.291 11.6513 72.6192 12.8448C72.9474 14.0382 73.1115 15.366 73.1115 16.828V30.7021C72.1568 30.911 70.829 31.1496 69.1283 31.4182C67.4276 31.7165 65.3689 31.8657 62.9521 31.8657C61.4304 31.8657 60.043 31.7315 58.7899 31.4629C57.5666 31.1944 56.5073 30.7618 55.6122 30.165C54.7171 29.5385 54.0309 28.7329 53.5535 27.7482C53.0761 26.7636 52.8374 25.5552 52.8374 24.1231C52.8374 22.7506 53.1059 21.5869 53.643 20.6322C54.2099 19.6774 54.9558 18.9165 55.8808 18.3496C56.8057 17.7827 57.8649 17.38 59.0584 17.1413C60.2519 16.8727 61.4901 16.7385 62.7731 16.7385C63.6383 16.7385 64.3992 16.7832 65.0556 16.8727C65.7418 16.9324 66.2938 17.0219 66.7115 17.1413V16.5147C66.7115 15.3809 66.3684 14.4709 65.6822 13.7846C64.9959 13.0984 63.8025 12.7552 62.1018 12.7552C60.968 12.7552 59.8491 12.8448 58.7451 13.0238C57.6411 13.173 56.6864 13.3967 55.8808 13.6951L55.0304 8.32447C55.4183 8.20513 55.8957 8.08578 56.4626 7.96643C57.0593 7.81725 57.7008 7.6979 58.3871 7.60839C59.0733 7.48904 59.7894 7.39953 60.5353 7.33986C61.3111 7.25035 62.0868 7.20559 62.8626 7.20559Z" fill="#111D5E"/>
<path d="M78.0227 19.6028C78.0227 17.9021 78.2913 16.3058 78.8283 14.814C79.3952 13.2923 80.2008 11.9795 81.2451 10.8755C82.2894 9.74172 83.5575 8.84662 85.0493 8.19021C86.5411 7.5338 88.2418 7.20559 90.1514 7.20559C91.4045 7.20559 92.5533 7.32494 93.5975 7.56364C94.6418 7.77249 95.6563 8.08578 96.6409 8.5035L95.2535 13.8294C94.6269 13.5907 93.9407 13.3818 93.1948 13.2028C92.4488 13.0238 91.6134 12.9343 90.6885 12.9343C88.7192 12.9343 87.2423 13.5459 86.2577 14.7692C85.3029 15.9925 84.8255 17.6037 84.8255 19.6028C84.8255 21.7212 85.2731 23.3622 86.1682 24.5259C87.0931 25.6895 88.6894 26.2713 90.957 26.2713C91.7626 26.2713 92.6279 26.1967 93.5528 26.0476C94.4777 25.8984 95.3281 25.6597 96.1038 25.3315L97.0437 30.7916C96.268 31.1198 95.2983 31.4033 94.1346 31.642C92.971 31.8806 91.688 32 90.2857 32C88.1374 32 86.2875 31.6867 84.736 31.0601C83.1845 30.4037 81.9015 29.5235 80.8871 28.4196C79.9025 27.3156 79.1714 26.0177 78.6941 24.5259C78.2465 23.0042 78.0227 21.3632 78.0227 19.6028Z" fill="#FFC93E"/>
<path d="M101.295 1.96923L107.964 0.895103V7.83217H115.975V13.3818H107.964V21.6615C107.964 23.0639 108.203 24.1827 108.68 25.0182C109.187 25.8536 110.187 26.2713 111.679 26.2713C112.395 26.2713 113.126 26.2117 113.872 26.0923C114.647 25.9431 115.349 25.7492 115.975 25.5105L116.915 30.7021C116.109 31.0303 115.214 31.3137 114.23 31.5524C113.245 31.7911 112.037 31.9105 110.605 31.9105C108.784 31.9105 107.278 31.6718 106.084 31.1944C104.891 30.6872 103.936 30.0009 103.22 29.1357C102.504 28.2406 101.997 27.1664 101.698 25.9133C101.43 24.6601 101.295 23.2727 101.295 21.751V1.96923Z" fill="#111D5E"/>
</svg>
