<svg width="176" height="48" viewBox="0 0 176 48" fill="none" xmlns="http://www.w3.org/2000/svg">
<path d="M13.628 0C20.6098 0 25.958 1.25315 29.6727 3.75944C33.3874 6.22098 35.2448 10.0699 35.2448 15.3063C35.2448 18.5734 34.4839 21.2364 32.9622 23.2951C31.4853 25.3091 29.3371 26.8979 26.5175 28.0615C27.4573 29.2252 28.442 30.5678 29.4713 32.0895C30.5007 33.5664 31.5077 35.1329 32.4923 36.7888C33.5217 38.4 34.5063 40.1007 35.4462 41.8909C36.386 43.6364 37.2587 45.3594 38.0643 47.0601H26.3161C25.4657 45.5385 24.593 43.9944 23.6979 42.428C22.8476 40.8615 21.9524 39.3399 21.0126 37.8629C20.1175 36.386 19.2224 34.9986 18.3273 33.7007C17.4322 32.358 16.5371 31.1497 15.642 30.0755H10.4727V47.0601H0V1.20839C2.28252 0.76084 4.63217 0.447553 7.04895 0.268531C9.51049 0.08951 11.7035 0 13.628 0ZM14.2322 8.92867C13.4713 8.92867 12.7776 8.95105 12.151 8.9958C11.5692 9.04056 11.0098 9.08531 10.4727 9.13007V21.7511H13.4266C17.365 21.7511 20.1846 21.2587 21.8853 20.2741C23.586 19.2895 24.4364 17.6112 24.4364 15.2392C24.4364 12.9566 23.5636 11.3455 21.8182 10.4056C20.1175 9.42098 17.5888 8.92867 14.2322 8.92867Z" fill="white"/>
<path d="M40.7229 29.6727C40.7229 26.5399 41.1928 23.8098 42.1327 21.4825C43.1173 19.1105 44.3928 17.1413 45.9593 15.5748C47.5257 14.0084 49.3159 12.8224 51.3299 12.0168C53.3886 11.2112 55.4921 10.8084 57.6404 10.8084C62.653 10.8084 66.6138 12.3524 69.5229 15.4406C72.432 18.4839 73.8865 22.9818 73.8865 28.9343C73.8865 29.5161 73.8642 30.165 73.8194 30.8811C73.7747 31.5524 73.7299 32.1566 73.6851 32.6937H50.9942C51.218 34.7524 52.1802 36.386 53.8809 37.5944C55.5816 38.8028 57.8642 39.407 60.7285 39.407C62.5635 39.407 64.3537 39.2504 66.0991 38.9371C67.8893 38.579 69.3439 38.1538 70.4628 37.6615L71.8054 45.7846C71.2684 46.0532 70.5523 46.3217 69.6572 46.5902C68.7621 46.8587 67.7551 47.0825 66.6362 47.2615C65.5621 47.4853 64.3984 47.6643 63.1453 47.7986C61.8921 47.9329 60.639 48 59.3858 48C56.2082 48 53.4334 47.5301 51.0614 46.5902C48.7341 45.6504 46.7872 44.3748 45.2208 42.7636C43.6991 41.1077 42.5579 39.1608 41.797 36.9231C41.0809 34.6853 40.7229 32.2685 40.7229 29.6727ZM64.2194 25.8462C64.1746 24.9958 64.018 24.1678 63.7495 23.3622C63.5257 22.5566 63.1453 21.8406 62.6082 21.214C62.1159 20.5874 61.467 20.0727 60.6614 19.6699C59.9005 19.2671 58.9383 19.0657 57.7747 19.0657C56.6558 19.0657 55.6935 19.2671 54.8879 19.6699C54.0823 20.028 53.411 20.5203 52.8739 21.1469C52.3369 21.7734 51.9117 22.5119 51.5984 23.3622C51.3299 24.1678 51.1285 24.9958 50.9942 25.8462H64.2194Z" fill="white"/>
<path d="M95.0995 40.0783C96.0841 40.0783 97.0239 40.0559 97.9191 40.0112C98.8142 39.9664 99.5302 39.8993 100.067 39.8098V32.2238C99.6645 32.1343 99.0603 32.0448 98.2547 31.9552C97.4491 31.8657 96.7107 31.821 96.0393 31.821C95.0995 31.821 94.2044 31.8881 93.354 32.0224C92.5484 32.1119 91.8323 32.3133 91.2058 32.6266C90.5792 32.9399 90.0869 33.365 89.7289 33.9021C89.3708 34.4392 89.1918 35.1105 89.1918 35.9161C89.1918 37.4825 89.7065 38.579 90.7358 39.2056C91.81 39.7874 93.2645 40.0783 95.0995 40.0783ZM94.2939 10.8084C97.2477 10.8084 99.7093 11.1441 101.678 11.8154C103.648 12.4867 105.214 13.449 106.378 14.7021C107.586 15.9552 108.437 17.4769 108.929 19.2671C109.421 21.0573 109.667 23.049 109.667 25.242V46.0532C108.235 46.3664 106.244 46.7245 103.692 47.1273C101.141 47.5748 98.0533 47.7986 94.4281 47.7986C92.1456 47.7986 90.0645 47.5972 88.1848 47.1944C86.3498 46.7916 84.761 46.1427 83.4184 45.2476C82.0757 44.3077 81.0463 43.0993 80.3302 41.6224C79.6142 40.1455 79.2561 38.3329 79.2561 36.1846C79.2561 34.1259 79.6589 32.3804 80.4645 30.9483C81.3149 29.5161 82.4337 28.3748 83.8212 27.5245C85.2086 26.6741 86.7974 26.0699 88.5876 25.7119C90.3778 25.3091 92.2351 25.1077 94.1596 25.1077C95.4575 25.1077 96.5988 25.1748 97.5834 25.3091C98.6128 25.3986 99.4407 25.5329 100.067 25.7119V24.772C100.067 23.0713 99.5526 21.7063 98.5232 20.6769C97.4939 19.6476 95.7037 19.1329 93.1526 19.1329C91.4519 19.1329 89.7736 19.2671 88.1177 19.5357C86.4617 19.7594 85.0295 20.0951 83.8212 20.5427L82.5456 12.4867C83.1274 12.3077 83.8435 12.1287 84.6939 11.9497C85.589 11.7259 86.5512 11.5469 87.5806 11.4126C88.61 11.2336 89.6841 11.0993 90.803 11.0098C91.9666 10.8755 93.1302 10.8084 94.2939 10.8084Z" fill="white"/>
<path d="M117.034 29.4042C117.034 26.8531 117.437 24.4587 118.242 22.221C119.093 19.9385 120.301 17.9692 121.868 16.3133C123.434 14.6126 125.336 13.2699 127.574 12.2853C129.812 11.3007 132.363 10.8084 135.227 10.8084C137.107 10.8084 138.83 10.9874 140.396 11.3455C141.963 11.6587 143.484 12.1287 144.961 12.7552L142.88 20.7441C141.94 20.386 140.911 20.0727 139.792 19.8042C138.673 19.5357 137.42 19.4014 136.033 19.4014C133.079 19.4014 130.863 20.3189 129.387 22.1538C127.954 23.9888 127.238 26.4056 127.238 29.4042C127.238 32.5818 127.91 35.0434 129.252 36.7888C130.64 38.5343 133.034 39.407 136.435 39.407C137.644 39.407 138.942 39.2951 140.329 39.0713C141.717 38.8476 142.992 38.4895 144.156 37.9972L145.566 46.1874C144.402 46.6797 142.947 47.1049 141.202 47.4629C139.456 47.821 137.532 48 135.428 48C132.206 48 129.431 47.5301 127.104 46.5902C124.777 45.6056 122.852 44.2853 121.331 42.6294C119.854 40.9734 118.757 39.0266 118.041 36.7888C117.37 34.5063 117.034 32.0448 117.034 29.4042Z" fill="#FFC93E"/>
<path d="M151.943 2.95385L161.946 1.34266V11.7483H173.963V20.0727H161.946V32.4923C161.946 34.5958 162.304 36.2741 163.02 37.5273C163.781 38.7804 165.28 39.407 167.518 39.407C168.592 39.407 169.689 39.3175 170.807 39.1385C171.971 38.9147 173.023 38.6238 173.963 38.2657L175.373 46.0532C174.164 46.5455 172.821 46.9706 171.345 47.3287C169.868 47.6867 168.055 47.8657 165.907 47.8657C163.177 47.8657 160.917 47.5077 159.126 46.7916C157.336 46.0308 155.904 45.0014 154.83 43.7035C153.756 42.3608 152.995 40.7497 152.547 38.8699C152.145 36.9902 151.943 34.9091 151.943 32.6266V2.95385Z" fill="white"/>
</svg>
