<svg width="23" height="103" viewBox="0 0 23 103" fill="none" xmlns="http://www.w3.org/2000/svg">
<path d="M3.03162 87.9388L11.3138 102.284L19.596 87.9388L18.5706 87.9388L11.3138 100.508L4.05704 87.9388L3.03162 87.9388Z" fill="#0A142F"/>
<path d="M5.26397 87.9388L11.3138 98.4174L17.3637 87.9388L5.26397 87.9388Z" fill="#0A142F"/>
<path d="M7.99118 72.1989C7.4874 72.2585 7.0963 72.5005 6.81789 72.9247C6.53948 73.349 6.40027 73.8693 6.40027 74.4858C6.40027 74.9366 6.47319 75.331 6.61902 75.669C6.76486 76.0038 6.96538 76.2656 7.22059 76.4545C7.4758 76.6402 7.76581 76.733 8.09062 76.733C8.3624 76.733 8.59606 76.6683 8.79161 76.5391C8.98385 76.4065 9.14459 76.2375 9.27385 76.032C9.3998 75.8265 9.5042 75.611 9.58706 75.3857C9.66661 75.1603 9.73124 74.9531 9.78096 74.7642L10.0594 73.7301C10.129 73.465 10.2251 73.17 10.3477 72.8452C10.4704 72.517 10.6377 72.2038 10.8498 71.9055C11.0587 71.6039 11.3271 71.3553 11.6552 71.1598C11.9834 70.9643 12.3861 70.8665 12.8633 70.8665C13.4135 70.8665 13.9107 71.0107 14.3548 71.299C14.7989 71.584 15.1519 72.0017 15.4138 72.5518C15.6756 73.0987 15.8065 73.7633 15.8065 74.5455C15.8065 75.2746 15.6889 75.906 15.4535 76.4396C15.2182 76.9699 14.8901 77.3875 14.4692 77.6925C14.0482 77.9941 13.5594 78.1648 13.0025 78.2045L13.0025 76.9318C13.387 76.8987 13.7052 76.7694 13.9571 76.544C14.2057 76.3153 14.3913 76.027 14.5139 75.679C14.6332 75.3277 14.6929 74.9498 14.6929 74.5455C14.6929 74.0748 14.6167 73.6522 14.4642 73.2777C14.3084 72.9032 14.093 72.6065 13.8179 72.3878C13.5395 72.169 13.2147 72.0597 12.8435 72.0597C12.5054 72.0597 12.2303 72.1541 12.0182 72.343C11.8061 72.532 11.6337 72.7805 11.5011 73.0888C11.3686 73.397 11.2525 73.7301 11.1531 74.0881L10.7952 75.3409C10.5665 76.1364 10.24 76.7661 9.81576 77.2301C9.39152 77.6941 8.83635 77.9261 8.15028 77.9261C7.5802 77.9261 7.08304 77.772 6.6588 77.4638C6.23124 77.1522 5.8998 76.7346 5.66448 76.2109C5.42584 75.6839 5.30652 75.0956 5.30652 74.446C5.30652 73.7898 5.42419 73.2064 5.65951 72.696C5.89152 72.1856 6.2097 71.7812 6.61405 71.483C7.01841 71.1813 7.47745 71.0223 7.99118 71.0057L7.99118 72.1989ZM15.7866 65.8961C15.7866 66.612 15.6176 67.2285 15.2795 67.7456C14.9415 68.2626 14.4758 68.6603 13.8825 68.9387C13.2892 69.2172 12.6114 69.3564 11.8491 69.3564C11.0736 69.3564 10.3891 69.2138 9.79587 68.9288C9.19928 68.6404 8.73361 68.2394 8.39885 67.7257C8.06079 67.2086 7.89175 66.6054 7.89175 65.916C7.89175 65.3791 7.99118 64.8952 8.19005 64.4643C8.38891 64.0334 8.66732 63.6805 9.02527 63.4054C9.38323 63.1303 9.80084 62.9596 10.2781 62.8933L10.2781 64.0666C9.9301 64.1561 9.62187 64.3549 9.3534 64.6632C9.08162 64.9681 8.94573 65.3791 8.94573 65.8961C8.94573 66.3535 9.06505 66.7546 9.30368 67.0993C9.53901 67.4406 9.8721 67.7074 10.303 67.8997C10.7305 68.0886 11.2327 68.1831 11.8094 68.1831C12.3993 68.1831 12.9131 68.0903 13.3506 67.9047C13.7881 67.7157 14.1278 67.4506 14.3697 67.1092C14.6117 66.7645 14.7327 66.3601 14.7327 65.8961C14.7327 65.5912 14.6796 65.3145 14.5736 65.0659C14.4675 64.8173 14.315 64.6068 14.1162 64.4345C13.9173 64.2621 13.6787 64.1395 13.4003 64.0666L13.4003 62.8933C13.851 62.9596 14.257 63.1236 14.6183 63.3855C14.9763 63.644 15.2613 63.987 15.4734 64.4146C15.6822 64.8388 15.7866 65.3327 15.7866 65.8961ZM15.6275 61.1781L7.99118 61.1781L7.99118 60.0446L9.14459 60.0446L9.14459 59.965C8.76675 59.8258 8.46017 59.5739 8.22485 59.2093C7.98953 58.8448 7.87186 58.4338 7.87186 57.9764C7.87186 57.8902 7.87352 57.7825 7.87684 57.6532C7.88015 57.524 7.88512 57.4262 7.89175 57.3599L9.08493 57.3599C9.07499 57.3997 9.06008 57.4908 9.04019 57.6333C9.01699 57.7725 9.00539 57.92 9.00539 58.0758C9.00539 58.447 9.08328 58.7785 9.23905 59.0701C9.39151 59.3585 9.60364 59.5872 9.87542 59.7562C10.1439 59.9219 10.4505 60.0048 10.7952 60.0048L15.6275 60.0048L15.6275 61.1781ZM15.7866 53.0993C15.7866 53.7886 15.6226 54.3935 15.2945 54.9139C14.9663 55.4309 14.5073 55.8353 13.9173 56.127C13.3274 56.4153 12.638 56.5595 11.8491 56.5595C11.0537 56.5595 10.3593 56.4153 9.76604 56.127C9.17276 55.8353 8.71206 55.4309 8.38394 54.9139C8.05581 54.3935 7.89175 53.7886 7.89175 53.0993C7.89175 52.4099 8.05581 51.8066 8.38394 51.2896C8.71206 50.7692 9.17276 50.3649 9.76604 50.0765C10.3593 49.7849 11.0537 49.639 11.8491 49.639C12.638 49.639 13.3274 49.7849 13.9173 50.0765C14.5073 50.3649 14.9663 50.7692 15.2945 51.2896C15.6226 51.8066 15.7866 52.4099 15.7866 53.0993ZM14.7327 53.0993C14.7327 52.5756 14.5984 52.1447 14.33 51.8066C14.0615 51.4686 13.7085 51.2183 13.271 51.0559C12.8335 50.8935 12.3596 50.8123 11.8491 50.8123C11.3387 50.8123 10.8631 50.8935 10.4223 51.0559C9.98148 51.2183 9.62518 51.4686 9.3534 51.8066C9.08162 52.1447 8.94573 52.5756 8.94573 53.0993C8.94573 53.6229 9.08162 54.0538 9.3534 54.3919C9.62518 54.7299 9.98148 54.9802 10.4223 55.1426C10.8631 55.305 11.3387 55.3862 11.8491 55.3862C12.3596 55.3862 12.8335 55.305 13.271 55.1426C13.7085 54.9802 14.0615 54.7299 14.33 54.3919C14.5984 54.0538 14.7327 53.6229 14.7327 53.0993ZM5.44573 46.6747L15.6275 46.6747L15.6275 47.848L5.44573 47.848L5.44573 46.6747ZM5.44573 43.3524L15.6275 43.3524L15.6275 44.5257L5.44573 44.5257L5.44573 43.3524ZM15.6275 33.9648L15.6275 37.1069L5.44573 37.1069L5.44573 33.8256C5.44573 32.8379 5.64956 31.9928 6.05723 31.2901C6.46159 30.5875 7.04327 30.0489 7.80226 29.6744C8.55794 29.2998 9.46277 29.1126 10.5168 29.1126C11.5774 29.1126 12.4905 29.3015 13.2561 29.6793C14.0184 30.0572 14.6051 30.6074 15.016 31.3299C15.4237 32.0524 15.6275 32.9308 15.6275 33.9648ZM14.5338 35.8739L14.5338 34.0444C14.5338 33.2025 14.3714 32.5049 14.0466 31.9513C13.7218 31.3978 13.2594 30.9852 12.6595 30.7134C12.0596 30.4416 11.3453 30.3058 10.5168 30.3058C9.69478 30.3058 8.98716 30.44 8.39388 30.7085C7.79729 30.9769 7.3399 31.378 7.02172 31.9116C6.70023 32.4452 6.53948 33.1097 6.53948 33.9052L6.53948 35.8739L14.5338 35.8739ZM15.7866 24.1012C15.7866 24.7906 15.6226 25.3955 15.2944 25.9158C14.9663 26.4329 14.5073 26.8372 13.9173 27.1289C13.3274 27.4173 12.638 27.5614 11.8491 27.5614C11.0537 27.5614 10.3593 27.4173 9.76604 27.1289C9.17276 26.8372 8.71206 26.4329 8.38394 25.9158C8.05581 25.3955 7.89175 24.7906 7.89175 24.1012C7.89175 23.4118 8.05581 22.8086 8.38394 22.2915C8.71206 21.7712 9.17276 21.3668 9.76604 21.0785C10.3593 20.7868 11.0537 20.641 11.8491 20.641C12.638 20.641 13.3274 20.7868 13.9173 21.0785C14.5073 21.3668 14.9663 21.7712 15.2944 22.2915C15.6226 22.8086 15.7866 23.4118 15.7866 24.1012ZM14.7327 24.1012C14.7327 23.5775 14.5984 23.1467 14.33 22.8086C14.0615 22.4705 13.7085 22.2203 13.271 22.0579C12.8335 21.8955 12.3596 21.8143 11.8491 21.8143C11.3387 21.8143 10.8631 21.8955 10.4223 22.0579C9.98148 22.2203 9.62518 22.4705 9.3534 22.8086C9.08162 23.1467 8.94573 23.5775 8.94573 24.1012C8.94573 24.6249 9.08162 25.0558 9.3534 25.3938C9.62518 25.7319 9.98148 25.9821 10.4223 26.1445C10.8631 26.3069 11.3387 26.3881 11.8491 26.3881C12.3596 26.3881 12.8335 26.3069 13.271 26.1445C13.7085 25.9821 14.0615 25.7319 14.33 25.3938C14.5984 25.0558 14.7327 24.6249 14.7327 24.1012ZM15.6275 17.3796L7.99118 19.7063L7.99118 18.4734L13.8378 16.8228L13.8378 16.7433L7.99118 15.1126L7.99118 13.8597L13.8179 12.2489L13.8179 12.1694L7.99118 10.5188L7.99118 9.28587L15.6275 11.6126L15.6275 12.766L9.76107 14.4364L9.76107 14.5558L15.6275 16.2262L15.6275 17.3796ZM11.0338 6.56143L15.6275 6.56143L15.6275 7.73473L7.99118 7.73473L7.99118 6.60121L9.18436 6.60121L9.18436 6.50178C8.79658 6.3228 8.48503 6.05102 8.2497 5.68643C8.01107 5.32185 7.89175 4.85121 7.89175 4.2745C7.89175 3.75746 7.99781 3.30504 8.20993 2.91726C8.41874 2.52947 8.73692 2.22786 9.16448 2.01243C9.58872 1.79699 10.1257 1.68927 10.7753 1.68927L15.6275 1.68927L15.6275 2.86257L10.8548 2.86257C10.2549 2.86257 9.78758 3.01835 9.45283 3.3299C9.11476 3.64145 8.94573 4.06901 8.94573 4.61257C8.94573 4.9871 9.02693 5.32185 9.18933 5.61683C9.35174 5.9085 9.58872 6.13885 9.90027 6.30788C10.2118 6.47692 10.5897 6.56143 11.0338 6.56143Z" fill="#0A142F"/>
</svg>
