<svg width="275" height="66" viewBox="0 0 275 66" fill="none" xmlns="http://www.w3.org/2000/svg">
<path d="M24.2283 47.1429C37.2464 47.1429 47.7997 36.5896 47.7997 23.5714C47.7997 22.096 47.6642 20.6523 47.4048 19.252C46.0045 18.9927 44.5608 18.8571 43.0854 18.8571C30.0673 18.8571 19.514 29.4104 19.514 42.4286C19.514 43.904 19.6496 45.3477 19.9089 46.748C21.3092 47.0073 22.7529 47.1429 24.2283 47.1429Z" fill="#2563EB"/>
<path fill-rule="evenodd" clip-rule="evenodd" d="M19.9089 46.748C8.95362 44.7191 0.65686 35.1142 0.65686 23.5714C0.65686 10.5533 11.2102 0 24.2283 0C35.771 0 45.376 8.29676 47.4048 19.252C46.0045 18.9927 44.5608 18.8571 43.0854 18.8571C30.0673 18.8571 19.514 29.4104 19.514 42.4286C19.514 43.904 19.6496 45.3477 19.9089 46.748Z" fill="#2563EB"/>
<path fill-rule="evenodd" clip-rule="evenodd" d="M24.2283 47.1429C37.2464 47.1429 47.7997 36.5896 47.7997 23.5714C47.7997 22.096 47.6642 20.6523 47.4048 19.252C58.3601 21.2809 66.6568 30.8857 66.6568 42.4285C66.6568 55.4466 56.1035 65.9999 43.0853 65.9999C31.5426 65.9999 21.9377 57.7032 19.9089 46.748C21.3092 47.0073 22.7529 47.1429 24.2283 47.1429Z" fill="#FFC93E"/>
<path d="M111.999 40.356C111.159 43.072 109.689 45.102 107.589 46.446C105.489 47.762 103.039 48.42 100.239 48.42C97.4949 48.42 95.1149 47.846 93.0989 46.698C91.1109 45.55 89.5709 43.912 88.4789 41.784C87.4149 39.656 86.8829 37.108 86.8829 34.14C86.8829 31.172 87.4289 28.624 88.5209 26.496C89.6129 24.368 91.1529 22.73 93.1409 21.582C95.1289 20.434 97.4669 19.86 100.155 19.86C102.983 19.86 105.405 20.462 107.421 21.666C109.465 22.842 110.865 24.634 111.621 27.042L106.371 29.268C105.895 27.588 105.167 26.398 104.187 25.698C103.207 24.97 101.947 24.606 100.407 24.606C98.1109 24.606 96.2769 25.432 94.9049 27.084C93.5609 28.708 92.8889 31.06 92.8889 34.14C92.8889 37.192 93.5329 39.544 94.8209 41.196C96.1089 42.848 97.9709 43.674 100.407 43.674C101.919 43.674 103.221 43.268 104.313 42.456C105.433 41.644 106.217 40.412 106.665 38.76L111.999 40.356Z" fill="#2563EB"/>
<path d="M119.249 23.976C116.869 23.976 115.679 22.954 115.679 20.91C115.679 18.838 116.869 17.802 119.249 17.802C121.629 17.802 122.819 18.838 122.819 20.91C122.819 22.954 121.629 23.976 119.249 23.976ZM122.105 27V48H116.351V27H122.105Z" fill="#2563EB"/>
<path d="M128.204 48V27H133.202L133.58 31.116C134.112 29.688 134.91 28.582 135.974 27.798C137.066 26.986 138.438 26.58 140.09 26.58C141.07 26.58 141.826 26.734 142.358 27.042L141.686 31.872C141.406 31.788 141.056 31.718 140.636 31.662C140.244 31.578 139.726 31.536 139.082 31.536C138.214 31.536 137.388 31.746 136.604 32.166C135.848 32.558 135.218 33.174 134.714 34.014C134.21 34.826 133.958 35.862 133.958 37.122V48H128.204Z" fill="#2563EB"/>
<path d="M155.047 26.58C157.847 26.58 160.017 27.182 161.557 28.386C163.125 29.59 164.161 31.046 164.665 32.754L159.289 34.686C158.729 32.138 157.343 30.864 155.131 30.864C153.535 30.864 152.289 31.424 151.393 32.544C150.525 33.664 150.091 35.33 150.091 37.542C150.091 39.782 150.539 41.448 151.435 42.54C152.359 43.604 153.605 44.136 155.173 44.136C157.609 44.136 159.065 42.89 159.541 40.398L164.749 42.078C164.273 43.954 163.209 45.48 161.557 46.656C159.933 47.832 157.819 48.42 155.215 48.42C153.031 48.42 151.113 47.986 149.461 47.118C147.837 46.25 146.577 45.004 145.681 43.38C144.785 41.756 144.337 39.796 144.337 37.5C144.337 35.204 144.785 33.244 145.681 31.62C146.605 29.996 147.865 28.75 149.461 27.882C151.085 27.014 152.947 26.58 155.047 26.58Z" fill="#2563EB"/>
<path d="M178.796 26.58C180.896 26.58 182.758 27.014 184.382 27.882C186.006 28.75 187.266 29.996 188.162 31.62C189.086 33.244 189.548 35.204 189.548 37.5C189.548 39.796 189.086 41.756 188.162 43.38C187.266 45.004 186.006 46.25 184.382 47.118C182.758 47.986 180.896 48.42 178.796 48.42C176.668 48.42 174.792 47.986 173.168 47.118C171.572 46.25 170.312 45.004 169.388 43.38C168.492 41.756 168.044 39.796 168.044 37.5C168.044 35.204 168.492 33.244 169.388 31.62C170.312 29.996 171.572 28.75 173.168 27.882C174.792 27.014 176.668 26.58 178.796 26.58ZM178.796 30.864C177.228 30.864 175.996 31.424 175.1 32.544C174.232 33.636 173.798 35.288 173.798 37.5C173.798 39.712 174.232 41.378 175.1 42.498C175.996 43.59 177.228 44.136 178.796 44.136C180.336 44.136 181.54 43.59 182.408 42.498C183.304 41.378 183.752 39.712 183.752 37.5C183.752 35.288 183.304 33.636 182.408 32.544C181.54 31.424 180.336 30.864 178.796 30.864Z" fill="#2563EB"/>
<path d="M203.939 26.58C206.039 26.58 207.901 27.014 209.525 27.882C211.148 28.75 212.408 29.996 213.304 31.62C214.228 33.244 214.691 35.204 214.691 37.5C214.691 39.796 214.228 41.756 213.304 43.38C212.408 45.004 211.148 46.25 209.525 47.118C207.901 47.986 206.039 48.42 203.939 48.42C201.811 48.42 199.934 47.986 198.311 47.118C196.715 46.25 195.454 45.004 194.531 43.38C193.635 41.756 193.187 39.796 193.187 37.5C193.187 35.204 193.635 33.244 194.531 31.62C195.454 29.996 196.715 28.75 198.311 27.882C199.934 27.014 201.811 26.58 203.939 26.58ZM203.939 30.864C202.371 30.864 201.138 31.424 200.242 32.544C199.374 33.636 198.941 35.288 198.941 37.5C198.941 39.712 199.374 41.378 200.242 42.498C201.138 43.59 202.371 44.136 203.939 44.136C205.479 44.136 206.682 43.59 207.55 42.498C208.446 41.378 208.895 39.712 208.895 37.5C208.895 35.288 208.446 33.636 207.55 32.544C206.682 31.424 205.479 30.864 203.939 30.864Z" fill="#2563EB"/>
<path d="M225.175 17.802V41.532C225.175 42.512 225.343 43.198 225.679 43.59C226.015 43.982 226.575 44.178 227.359 44.178C227.835 44.178 228.227 44.15 228.535 44.094C228.843 44.038 229.235 43.926 229.711 43.758L229.207 47.538C228.731 47.818 228.129 48.028 227.401 48.168C226.701 48.336 226.001 48.42 225.301 48.42C223.257 48.42 221.759 47.93 220.807 46.95C219.883 45.942 219.421 44.346 219.421 42.162V17.802H225.175Z" fill="#2563EB"/>
<path d="M242.661 48.42C239.357 48.42 236.711 47.468 234.723 45.564C232.735 43.632 231.741 40.944 231.741 37.5C231.741 35.204 232.189 33.244 233.085 31.62C233.981 29.996 235.227 28.75 236.823 27.882C238.447 27.014 240.295 26.58 242.367 26.58C244.495 26.58 246.301 27.014 247.785 27.882C249.269 28.722 250.403 29.884 251.187 31.368C251.971 32.824 252.363 34.49 252.363 36.366C252.363 36.926 252.349 37.458 252.321 37.962C252.293 38.466 252.251 38.914 252.195 39.306H237.369C237.593 40.93 238.153 42.148 239.049 42.96C239.973 43.744 241.163 44.136 242.619 44.136C243.851 44.136 244.845 43.898 245.601 43.422C246.357 42.946 246.945 42.288 247.365 41.448L251.943 43.212C251.271 44.864 250.095 46.152 248.415 47.076C246.735 47.972 244.817 48.42 242.661 48.42ZM242.325 30.822C239.609 30.822 237.971 32.32 237.411 35.316H246.861C246.693 33.86 246.217 32.754 245.433 31.998C244.677 31.214 243.641 30.822 242.325 30.822Z" fill="#2563EB"/>
<path d="M265.639 48.42C263.511 48.42 261.565 48.042 259.801 47.286C258.065 46.53 256.651 45.466 255.559 44.094L258.877 40.734C259.549 41.742 260.445 42.568 261.565 43.212C262.685 43.856 264.015 44.178 265.555 44.178C266.647 44.178 267.515 44.024 268.159 43.716C268.831 43.38 269.167 42.862 269.167 42.162C269.167 41.714 269.013 41.336 268.705 41.028C268.397 40.692 267.781 40.426 266.857 40.23L263.161 39.474C260.725 38.97 258.989 38.214 257.953 37.206C256.945 36.17 256.441 34.84 256.441 33.216C256.441 32.068 256.777 30.99 257.449 29.982C258.149 28.974 259.185 28.162 260.557 27.546C261.929 26.902 263.637 26.58 265.681 26.58C269.937 26.58 272.989 27.882 274.837 30.486L271.393 33.846C270.777 32.866 269.965 32.124 268.957 31.62C267.977 31.088 266.941 30.822 265.849 30.822C263.385 30.822 262.153 31.508 262.153 32.88C262.153 33.328 262.349 33.72 262.741 34.056C263.133 34.364 263.847 34.63 264.883 34.854L269.167 35.736C271.239 36.156 272.723 36.87 273.619 37.878C274.515 38.858 274.963 40.048 274.963 41.448C274.963 43.464 274.151 45.13 272.527 46.446C270.931 47.762 268.635 48.42 265.639 48.42Z" fill="#2563EB"/>
</svg>
