<svg width="218" height="66" viewBox="0 0 218 66" fill="none" xmlns="http://www.w3.org/2000/svg">
<path d="M19.5479 30.4829C20.7813 25.8805 25.5122 21.1497 30.1146 19.9163L58.808 12.2267C63.4104 10.9933 66.1416 13.7245 64.9082 18.3269L57.2186 47.0203C55.9852 51.6227 51.2544 56.3536 46.652 57.587L17.9585 65.2765C13.3561 66.5099 10.625 63.7788 11.8584 59.1764L19.5479 30.4829Z" fill="#9E77ED"/>
<path d="M8.04489 18.9796C9.27829 14.3772 14.0091 9.64639 18.6115 8.413L47.305 0.723445C51.9074 -0.509951 54.6386 2.22117 53.4052 6.82358L45.7156 35.517C44.4822 40.1194 39.7514 44.8503 35.149 46.0837L6.45547 53.7732C1.85307 55.0066 -0.878055 52.2755 0.355342 47.6731L8.04489 18.9796Z" fill="#6941C6"/>
<path d="M91.5696 44.1416H101.44V48.0056H86.7816V18.8156H91.5696V44.1416Z" fill="#101828"/>
<path d="M103.848 36.3296C103.848 34.0056 104.324 31.9476 105.276 30.1556C106.256 28.3636 107.572 26.9776 109.224 25.9976C110.904 24.9896 112.752 24.4856 114.768 24.4856C116.588 24.4856 118.17 24.8496 119.514 25.5776C120.886 26.2776 121.978 27.1596 122.79 28.2236V24.8636H127.62V48.0056H122.79V44.5616C121.978 45.6536 120.872 46.5636 119.472 47.2916C118.072 48.0196 116.476 48.3836 114.684 48.3836C112.696 48.3836 110.876 47.8796 109.224 46.8716C107.572 45.8356 106.256 44.4076 105.276 42.5876C104.324 40.7396 103.848 38.6536 103.848 36.3296ZM122.79 36.4136C122.79 34.8176 122.454 33.4316 121.782 32.2556C121.138 31.0796 120.284 30.1836 119.22 29.5676C118.156 28.9516 117.008 28.6436 115.776 28.6436C114.544 28.6436 113.396 28.9516 112.332 29.5676C111.268 30.1556 110.4 31.0376 109.728 32.2136C109.084 33.3616 108.762 34.7336 108.762 36.3296C108.762 37.9256 109.084 39.3256 109.728 40.5296C110.4 41.7336 111.268 42.6576 112.332 43.3016C113.424 43.9176 114.572 44.2256 115.776 44.2256C117.008 44.2256 118.156 43.9176 119.22 43.3016C120.284 42.6856 121.138 41.7896 121.782 40.6136C122.454 39.4096 122.79 38.0096 122.79 36.4136Z" fill="#101828"/>
<path d="M154.741 24.8636L140.545 58.8836H135.589L140.293 47.6276L131.179 24.8636H136.513L143.023 42.5036L149.785 24.8636H154.741Z" fill="#101828"/>
<path d="M179.564 35.8676C179.564 36.7356 179.508 37.5196 179.396 38.2196H161.714C161.854 40.0676 162.54 41.5516 163.772 42.6716C165.004 43.7916 166.516 44.3516 168.308 44.3516C170.884 44.3516 172.704 43.2736 173.768 41.1176H178.934C178.234 43.2456 176.96 44.9956 175.112 46.3676C173.292 47.7116 171.024 48.3836 168.308 48.3836C166.096 48.3836 164.108 47.8936 162.344 46.9136C160.608 45.9056 159.236 44.5056 158.228 42.7136C157.248 40.8936 156.758 38.7936 156.758 36.4136C156.758 34.0336 157.234 31.9476 158.186 30.1556C159.166 28.3356 160.524 26.9356 162.26 25.9556C164.024 24.9756 166.04 24.4856 168.308 24.4856C170.492 24.4856 172.438 24.9616 174.146 25.9136C175.854 26.8656 177.184 28.2096 178.136 29.9456C179.088 31.6536 179.564 33.6276 179.564 35.8676ZM174.566 34.3556C174.538 32.5916 173.908 31.1776 172.676 30.1136C171.444 29.0496 169.918 28.5176 168.098 28.5176C166.446 28.5176 165.032 29.0496 163.856 30.1136C162.68 31.1496 161.98 32.5636 161.756 34.3556H174.566Z" fill="#101828"/>
<path d="M189.064 28.2236C189.764 27.0476 190.688 26.1376 191.836 25.4936C193.012 24.8216 194.398 24.4856 195.994 24.4856V29.4416H194.776C192.9 29.4416 191.472 29.9176 190.492 30.8696C189.54 31.8216 189.064 33.4736 189.064 35.8256V48.0056H184.276V24.8636H189.064V28.2236Z" fill="#101828"/>
<path d="M208.795 48.3836C206.975 48.3836 205.337 48.0616 203.881 47.4176C202.453 46.7456 201.319 45.8496 200.479 44.7296C199.639 43.5816 199.191 42.3076 199.135 40.9076H204.091C204.175 41.8876 204.637 42.7136 205.477 43.3856C206.345 44.0296 207.423 44.3516 208.711 44.3516C210.055 44.3516 211.091 44.0996 211.819 43.5956C212.575 43.0636 212.953 42.3916 212.953 41.5796C212.953 40.7116 212.533 40.0676 211.693 39.6476C210.881 39.2276 209.579 38.7656 207.787 38.2616C206.051 37.7856 204.637 37.3236 203.545 36.8756C202.453 36.4276 201.501 35.7416 200.689 34.8176C199.905 33.8936 199.513 32.6756 199.513 31.1636C199.513 29.9316 199.877 28.8116 200.605 27.8036C201.333 26.7676 202.369 25.9556 203.713 25.3676C205.085 24.7796 206.653 24.4856 208.417 24.4856C211.049 24.4856 213.163 25.1576 214.759 26.5016C216.383 27.8176 217.251 29.6236 217.363 31.9196H212.575C212.491 30.8836 212.071 30.0576 211.315 29.4416C210.559 28.8256 209.537 28.5176 208.249 28.5176C206.989 28.5176 206.023 28.7556 205.351 29.2316C204.679 29.7076 204.343 30.3376 204.343 31.1216C204.343 31.7376 204.567 32.2556 205.015 32.6756C205.463 33.0956 206.009 33.4316 206.653 33.6836C207.297 33.9076 208.249 34.2016 209.509 34.5656C211.189 35.0136 212.561 35.4756 213.625 35.9516C214.717 36.3996 215.655 37.0716 216.439 37.9676C217.223 38.8636 217.629 40.0536 217.657 41.5376C217.657 42.8536 217.293 44.0296 216.565 45.0656C215.837 46.1016 214.801 46.9136 213.457 47.5016C212.141 48.0896 210.587 48.3836 208.795 48.3836Z" fill="#101828"/>
</svg>
