<svg width="253" height="72" viewBox="0 0 253 72" fill="none" xmlns="http://www.w3.org/2000/svg">
<path d="M0.0365295 28.8H14.4365V43.2H0.0365295V28.8Z" fill="#9B51E0"/>
<path d="M43.2365 43.2001H28.8365V28.8001H43.2365V43.2001Z" fill="#F2994A"/>
<path d="M14.4365 28.8L28.8365 14.4L28.8365 28.8001L14.4365 43.2V28.8Z" fill="#F2C94C"/>
<path d="M28.8365 43.2001L14.4365 57.5999L14.4365 43.2L28.8365 28.8001V43.2001Z" fill="#9B51E0"/>
<path d="M0.0365295 28.8L28.8365 0L28.8365 14.4L14.4365 28.8H0.0365295Z" fill="#BB6BD9"/>
<path d="M43.2365 43.2001L14.4365 72L14.4365 57.5999L28.8365 43.2001H43.2365Z" fill="#BB6BD9"/>
<path d="M74.5985 51.42C72.3305 51.42 70.1325 51.098 68.0045 50.454C65.9045 49.81 64.2385 48.956 63.0065 47.892L64.8965 43.65C66.1005 44.602 67.5705 45.386 69.3065 46.002C71.0705 46.59 72.8345 46.884 74.5985 46.884C76.7825 46.884 78.4065 46.534 79.4705 45.834C80.5625 45.134 81.1085 44.21 81.1085 43.062C81.1085 42.222 80.8005 41.536 80.1845 41.004C79.5965 40.444 78.8405 40.01 77.9165 39.702C76.9925 39.394 75.7325 39.044 74.1365 38.652C71.8965 38.12 70.0765 37.588 68.6765 37.056C67.3045 36.524 66.1145 35.698 65.1065 34.578C64.1265 33.43 63.6365 31.89 63.6365 29.958C63.6365 28.334 64.0705 26.864 64.9385 25.548C65.8345 24.204 67.1645 23.14 68.9285 22.356C70.7205 21.572 72.9045 21.18 75.4805 21.18C77.2725 21.18 79.0365 21.404 80.7725 21.852C82.5085 22.3 84.0065 22.944 85.2665 23.784L83.5445 28.026C82.2565 27.27 80.9125 26.696 79.5125 26.304C78.1125 25.912 76.7545 25.716 75.4385 25.716C73.2825 25.716 71.6725 26.08 70.6085 26.808C69.5725 27.536 69.0545 28.502 69.0545 29.706C69.0545 30.546 69.3485 31.232 69.9365 31.764C70.5525 32.296 71.3225 32.716 72.2465 33.024C73.1705 33.332 74.4305 33.682 76.0265 34.074C78.2105 34.578 80.0025 35.11 81.4025 35.67C82.8025 36.202 83.9925 37.028 84.9725 38.148C85.9805 39.268 86.4845 40.78 86.4845 42.684C86.4845 44.308 86.0365 45.778 85.1405 47.094C84.2725 48.41 82.9425 49.46 81.1505 50.244C79.3585 51.028 77.1745 51.42 74.5985 51.42Z" fill="#101828"/>
<path d="M91.3946 28.572H96.6446V51H91.3946V28.572ZM94.0406 24.876C93.0886 24.876 92.2906 24.582 91.6466 23.994C91.0026 23.378 90.6806 22.622 90.6806 21.726C90.6806 20.83 91.0026 20.088 91.6466 19.5C92.2906 18.884 93.0886 18.576 94.0406 18.576C94.9926 18.576 95.7906 18.87 96.4346 19.458C97.0786 20.018 97.4006 20.732 97.4006 21.6C97.4006 22.524 97.0786 23.308 96.4346 23.952C95.8186 24.568 95.0206 24.876 94.0406 24.876Z" fill="#101828"/>
<path d="M110.465 51.294C108.645 51.294 106.867 51.056 105.131 50.58C103.395 50.104 102.009 49.502 100.973 48.774L102.989 44.784C103.997 45.456 105.201 46.002 106.601 46.422C108.029 46.814 109.429 47.01 110.801 47.01C113.937 47.01 115.505 46.184 115.505 44.532C115.505 43.748 115.099 43.202 114.287 42.894C113.503 42.586 112.229 42.292 110.465 42.012C108.617 41.732 107.105 41.41 105.929 41.046C104.781 40.682 103.773 40.052 102.905 39.156C102.065 38.232 101.645 36.958 101.645 35.334C101.645 33.206 102.527 31.512 104.291 30.252C106.083 28.964 108.491 28.32 111.515 28.32C113.055 28.32 114.595 28.502 116.135 28.866C117.675 29.202 118.935 29.664 119.915 30.252L117.899 34.242C115.995 33.122 113.853 32.562 111.473 32.562C109.933 32.562 108.757 32.8 107.945 33.276C107.161 33.724 106.769 34.326 106.769 35.082C106.769 35.922 107.189 36.524 108.029 36.888C108.897 37.224 110.227 37.546 112.019 37.854C113.811 38.134 115.281 38.456 116.429 38.82C117.577 39.184 118.557 39.8 119.369 40.668C120.209 41.536 120.629 42.768 120.629 44.364C120.629 46.464 119.719 48.144 117.899 49.404C116.079 50.664 113.601 51.294 110.465 51.294Z" fill="#101828"/>
<path d="M145.74 28.572L135.24 52.806C134.26 55.242 133.07 56.95 131.67 57.93C130.27 58.938 128.576 59.442 126.588 59.442C125.468 59.442 124.362 59.26 123.27 58.896C122.178 58.532 121.282 58.028 120.582 57.384L122.682 53.52C123.186 53.996 123.774 54.374 124.446 54.654C125.146 54.934 125.846 55.074 126.546 55.074C127.47 55.074 128.226 54.836 128.814 54.36C129.43 53.884 129.99 53.086 130.494 51.966L130.872 51.084L121.086 28.572H126.546L133.602 45.162L140.7 28.572H145.74Z" fill="#101828"/>
<path d="M161.453 28.32C163.637 28.32 165.583 28.796 167.291 29.748C169.027 30.7 170.385 32.044 171.365 33.78C172.345 35.516 172.835 37.518 172.835 39.786C172.835 42.054 172.345 44.07 171.365 45.834C170.385 47.57 169.027 48.914 167.291 49.866C165.583 50.818 163.637 51.294 161.453 51.294C158.429 51.294 156.035 50.286 154.271 48.27V59.148H149.021V28.572H154.02V31.512C154.887 30.448 155.952 29.65 157.212 29.118C158.499 28.586 159.913 28.32 161.453 28.32ZM160.865 46.8C162.797 46.8 164.38 46.156 165.611 44.868C166.871 43.58 167.501 41.886 167.501 39.786C167.501 37.686 166.871 35.992 165.611 34.704C164.38 33.416 162.797 32.772 160.865 32.772C159.605 32.772 158.471 33.066 157.464 33.654C156.456 34.214 155.657 35.026 155.069 36.09C154.481 37.154 154.188 38.386 154.188 39.786C154.188 41.186 154.481 42.418 155.069 43.482C155.657 44.546 156.456 45.372 157.464 45.96C158.471 46.52 159.605 46.8 160.865 46.8Z" fill="#101828"/>
<path d="M190.54 28.32C193.368 28.32 195.636 29.146 197.344 30.798C199.052 32.45 199.906 34.9 199.906 38.148V51H194.656V38.82C194.656 36.86 194.194 35.39 193.27 34.41C192.346 33.402 191.03 32.898 189.322 32.898C187.39 32.898 185.864 33.486 184.744 34.662C183.624 35.81 183.064 37.476 183.064 39.66V51H177.814V19.836H183.064V31.176C183.932 30.252 184.996 29.552 186.256 29.076C187.544 28.572 188.972 28.32 190.54 28.32Z" fill="#101828"/>
<path d="M228.28 28.572V51H223.282V48.144C222.442 49.152 221.392 49.936 220.132 50.496C218.872 51.028 217.514 51.294 216.058 51.294C213.062 51.294 210.696 50.468 208.96 48.816C207.252 47.136 206.398 44.658 206.398 41.382V28.572H211.648V40.668C211.648 42.684 212.096 44.196 212.992 45.204C213.916 46.184 215.218 46.674 216.898 46.674C218.774 46.674 220.258 46.1 221.35 44.952C222.47 43.776 223.03 42.096 223.03 39.912V28.572H228.28Z" fill="#101828"/>
<path d="M242.084 51.294C240.264 51.294 238.486 51.056 236.75 50.58C235.014 50.104 233.628 49.502 232.592 48.774L234.608 44.784C235.616 45.456 236.82 46.002 238.22 46.422C239.648 46.814 241.048 47.01 242.42 47.01C245.556 47.01 247.124 46.184 247.124 44.532C247.124 43.748 246.718 43.202 245.906 42.894C245.122 42.586 243.848 42.292 242.084 42.012C240.236 41.732 238.724 41.41 237.548 41.046C236.4 40.682 235.392 40.052 234.524 39.156C233.684 38.232 233.264 36.958 233.264 35.334C233.264 33.206 234.146 31.512 235.91 30.252C237.702 28.964 240.11 28.32 243.134 28.32C244.674 28.32 246.214 28.502 247.754 28.866C249.294 29.202 250.554 29.664 251.534 30.252L249.518 34.242C247.614 33.122 245.472 32.562 243.092 32.562C241.552 32.562 240.376 32.8 239.564 33.276C238.78 33.724 238.388 34.326 238.388 35.082C238.388 35.922 238.808 36.524 239.648 36.888C240.516 37.224 241.846 37.546 243.638 37.854C245.43 38.134 246.9 38.456 248.048 38.82C249.196 39.184 250.176 39.8 250.988 40.668C251.828 41.536 252.248 42.768 252.248 44.364C252.248 46.464 251.338 48.144 249.518 49.404C247.698 50.664 245.22 51.294 242.084 51.294Z" fill="#101828"/>
</svg>
