<svg width="281" height="66" viewBox="0 0 281 66" fill="none" xmlns="http://www.w3.org/2000/svg">
<path fill-rule="evenodd" clip-rule="evenodd" d="M33.2483 51.7C43.576 51.7 51.9482 43.3277 51.9482 33C51.9482 22.6723 43.576 14.3 33.2483 14.3C22.9205 14.3 14.5483 22.6723 14.5483 33C14.5483 43.3277 22.9205 51.7 33.2483 51.7ZM33.2483 66C51.4736 66 66.2482 51.2254 66.2482 33C66.2482 14.7746 51.4736 0 33.2483 0C15.0229 0 0.24826 14.7746 0.24826 33C0.24826 51.2254 15.0229 66 33.2483 66Z" fill="#6938EF"/>
<path d="M33.6257 33.7225C37.0623 30.2859 42.6342 30.2859 46.0708 33.7225L63.1827 50.8345C66.6194 54.2711 66.6194 59.843 63.1828 63.2796C59.7461 66.7162 54.1743 66.7162 50.7377 63.2796L33.6257 46.1676C30.1891 42.731 30.1891 37.1592 33.6257 33.7225Z" fill="#F670C7"/>
<path d="M38.4307 50.9726L49.2987 61.8406C54.5115 58.9334 58.8544 54.6538 61.8389 49.4906L51.0599 38.7117C49.1666 44.6208 44.4143 49.2503 38.4307 50.9726Z" fill="#6519BA"/>
<path d="M119.528 51.15C118.576 52.326 117.414 53.222 116.042 53.838C114.698 54.454 113.214 54.762 111.59 54.762C109.406 54.762 107.432 54.286 105.668 53.334C103.904 52.41 101.888 50.758 99.6203 48.378C96.9603 48.042 94.5803 47.188 92.4803 45.816C90.4083 44.444 88.7843 42.68 87.6083 40.524C86.4603 38.34 85.8863 35.932 85.8863 33.3C85.8863 30.416 86.5723 27.826 87.9443 25.53C89.3443 23.206 91.2623 21.386 93.6983 20.07C96.1623 18.754 98.9202 18.096 101.972 18.096C105.024 18.096 107.768 18.754 110.204 20.07C112.64 21.386 114.558 23.206 115.958 25.53C117.358 27.826 118.058 30.416 118.058 33.3C118.058 36.716 117.092 39.712 115.16 42.288C113.256 44.864 110.722 46.656 107.558 47.664C108.258 48.392 108.93 48.91 109.574 49.218C110.246 49.554 110.96 49.722 111.716 49.722C113.536 49.722 115.132 48.994 116.504 47.538L119.528 51.15ZM92.7743 33.3C92.7743 35.12 93.1663 36.744 93.9503 38.172C94.7623 39.6 95.8683 40.72 97.2683 41.532C98.6683 42.316 100.236 42.708 101.972 42.708C103.708 42.708 105.276 42.316 106.676 41.532C108.076 40.72 109.168 39.6 109.952 38.172C110.764 36.744 111.17 35.12 111.17 33.3C111.17 31.48 110.764 29.856 109.952 28.428C109.168 27 108.076 25.894 106.676 25.11C105.276 24.298 103.708 23.892 101.972 23.892C100.236 23.892 98.6683 24.298 97.2683 25.11C95.8683 25.894 94.7623 27 93.9503 28.428C93.1663 29.856 92.7743 31.48 92.7743 33.3Z" fill="#101828"/>
<path d="M145.474 25.404V48H139.258V45.312C138.39 46.292 137.354 47.048 136.15 47.58C134.946 48.084 133.644 48.336 132.244 48.336C129.276 48.336 126.924 47.482 125.188 45.774C123.452 44.066 122.584 41.532 122.584 38.172V25.404H129.136V37.206C129.136 40.846 130.662 42.666 133.714 42.666C135.282 42.666 136.542 42.162 137.494 41.154C138.446 40.118 138.922 38.592 138.922 36.576V25.404H145.474Z" fill="#101828"/>
<path d="M162.296 48.336C159.916 48.336 157.774 47.846 155.87 46.866C153.994 45.858 152.524 44.472 151.46 42.708C150.396 40.944 149.864 38.942 149.864 36.702C149.864 34.462 150.396 32.46 151.46 30.696C152.524 28.932 153.994 27.56 155.87 26.58C157.774 25.572 159.916 25.068 162.296 25.068C164.676 25.068 166.804 25.572 168.68 26.58C170.556 27.56 172.026 28.932 173.09 30.696C174.154 32.46 174.686 34.462 174.686 36.702C174.686 38.942 174.154 40.944 173.09 42.708C172.026 44.472 170.556 45.858 168.68 46.866C166.804 47.846 164.676 48.336 162.296 48.336ZM162.296 42.96C163.976 42.96 165.348 42.4 166.412 41.28C167.504 40.132 168.05 38.606 168.05 36.702C168.05 34.798 167.504 33.286 166.412 32.166C165.348 31.018 163.976 30.444 162.296 30.444C160.616 30.444 159.23 31.018 158.138 32.166C157.046 33.286 156.5 34.798 156.5 36.702C156.5 38.606 157.046 40.132 158.138 41.28C159.23 42.4 160.616 42.96 162.296 42.96Z" fill="#101828"/>
<path d="M193.639 46.908C192.995 47.384 192.197 47.748 191.245 48C190.321 48.224 189.341 48.336 188.305 48.336C185.617 48.336 183.531 47.65 182.047 46.278C180.591 44.906 179.863 42.89 179.863 40.23V30.948H176.377V25.908H179.863V20.406H186.415V25.908H192.043V30.948H186.415V40.146C186.415 41.098 186.653 41.84 187.129 42.372C187.633 42.876 188.333 43.128 189.229 43.128C190.265 43.128 191.147 42.848 191.875 42.288L193.639 46.908Z" fill="#101828"/>
<path d="M197.317 25.404H203.869V48H197.317V25.404ZM200.593 22.254C199.389 22.254 198.409 21.904 197.653 21.204C196.897 20.504 196.519 19.636 196.519 18.6C196.519 17.564 196.897 16.696 197.653 15.996C198.409 15.296 199.389 14.946 200.593 14.946C201.797 14.946 202.777 15.282 203.533 15.954C204.289 16.626 204.667 17.466 204.667 18.474C204.667 19.566 204.289 20.476 203.533 21.204C202.777 21.904 201.797 22.254 200.593 22.254Z" fill="#101828"/>
<path d="M232.084 36.786C232.084 36.87 232.042 37.458 231.958 38.55H214.864C215.172 39.95 215.9 41.056 217.048 41.868C218.196 42.68 219.624 43.086 221.332 43.086C222.508 43.086 223.544 42.918 224.44 42.582C225.364 42.218 226.218 41.658 227.002 40.902L230.488 44.682C228.36 47.118 225.252 48.336 221.164 48.336C218.616 48.336 216.362 47.846 214.402 46.866C212.442 45.858 210.93 44.472 209.866 42.708C208.802 40.944 208.27 38.942 208.27 36.702C208.27 34.49 208.788 32.502 209.824 30.738C210.888 28.946 212.33 27.56 214.15 26.58C215.998 25.572 218.056 25.068 220.324 25.068C222.536 25.068 224.538 25.544 226.33 26.496C228.122 27.448 229.522 28.82 230.53 30.612C231.566 32.376 232.084 34.434 232.084 36.786ZM220.366 30.024C218.882 30.024 217.636 30.444 216.628 31.284C215.62 32.124 215.004 33.272 214.78 34.728H225.91C225.686 33.3 225.07 32.166 224.062 31.326C223.054 30.458 221.822 30.024 220.366 30.024Z" fill="#101828"/>
<path d="M250.18 25.068C252.98 25.068 255.234 25.908 256.942 27.588C258.678 29.268 259.546 31.76 259.546 35.064V48H252.994V36.072C252.994 34.28 252.602 32.95 251.818 32.082C251.034 31.186 249.9 30.738 248.416 30.738C246.764 30.738 245.448 31.256 244.468 32.292C243.488 33.3 242.998 34.812 242.998 36.828V48H236.446V25.404H242.704V28.05C243.572 27.098 244.65 26.37 245.938 25.866C247.226 25.334 248.64 25.068 250.18 25.068Z" fill="#101828"/>
<path d="M280.059 46.908C279.415 47.384 278.617 47.748 277.665 48C276.741 48.224 275.761 48.336 274.725 48.336C272.037 48.336 269.951 47.65 268.467 46.278C267.011 44.906 266.283 42.89 266.283 40.23V30.948H262.797V25.908H266.283V20.406H272.835V25.908H278.463V30.948H272.835V40.146C272.835 41.098 273.073 41.84 273.549 42.372C274.053 42.876 274.753 43.128 275.649 43.128C276.685 43.128 277.567 42.848 278.295 42.288L280.059 46.908Z" fill="#101828"/>
</svg>
