<svg width="218" height="66" viewBox="0 0 218 66" fill="none" xmlns="http://www.w3.org/2000/svg">
<path d="M19.5841 30.4829C20.8174 25.8805 25.5483 21.1497 30.1507 19.9163L58.8442 12.2267C63.4466 10.9933 66.1777 13.7245 64.9443 18.3269L57.2547 47.0203C56.0214 51.6227 51.2905 56.3536 46.6881 57.587L17.9946 65.2765C13.3922 66.5099 10.6611 63.7788 11.8945 59.1764L19.5841 30.4829Z" fill="#9E77ED"/>
<path d="M8.08103 18.9796C9.31442 14.3772 14.0453 9.64639 18.6477 8.413L47.3412 0.723445C51.9436 -0.509951 54.6747 2.22117 53.4413 6.82358L45.7518 35.517C44.5184 40.1194 39.7875 44.8503 35.1851 46.0837L6.49161 53.7732C1.8892 55.0066 -0.841922 52.2755 0.391475 47.6731L8.08103 18.9796Z" fill="#6941C6"/>
<path d="M91.6058 44.1416H101.476V48.0056H86.8178V18.8156H91.6058V44.1416Z" fill="#101828"/>
<path d="M103.884 36.3296C103.884 34.0056 104.36 31.9476 105.312 30.1556C106.292 28.3636 107.608 26.9776 109.26 25.9976C110.94 24.9896 112.788 24.4856 114.804 24.4856C116.624 24.4856 118.206 24.8496 119.55 25.5776C120.922 26.2776 122.014 27.1596 122.826 28.2236V24.8636H127.656V48.0056H122.826V44.5616C122.014 45.6536 120.908 46.5636 119.508 47.2916C118.108 48.0196 116.512 48.3836 114.72 48.3836C112.732 48.3836 110.912 47.8796 109.26 46.8716C107.608 45.8356 106.292 44.4076 105.312 42.5876C104.36 40.7396 103.884 38.6536 103.884 36.3296ZM122.826 36.4136C122.826 34.8176 122.49 33.4316 121.818 32.2556C121.174 31.0796 120.32 30.1836 119.256 29.5676C118.192 28.9516 117.044 28.6436 115.812 28.6436C114.58 28.6436 113.432 28.9516 112.368 29.5676C111.304 30.1556 110.436 31.0376 109.764 32.2136C109.12 33.3616 108.798 34.7336 108.798 36.3296C108.798 37.9256 109.12 39.3256 109.764 40.5296C110.436 41.7336 111.304 42.6576 112.368 43.3016C113.46 43.9176 114.608 44.2256 115.812 44.2256C117.044 44.2256 118.192 43.9176 119.256 43.3016C120.32 42.6856 121.174 41.7896 121.818 40.6136C122.49 39.4096 122.826 38.0096 122.826 36.4136Z" fill="#101828"/>
<path d="M154.777 24.8636L140.581 58.8836H135.625L140.329 47.6276L131.215 24.8636H136.549L143.059 42.5036L149.821 24.8636H154.777Z" fill="#101828"/>
<path d="M179.6 35.8676C179.6 36.7356 179.544 37.5196 179.432 38.2196H161.75C161.89 40.0676 162.576 41.5516 163.808 42.6716C165.04 43.7916 166.552 44.3516 168.344 44.3516C170.92 44.3516 172.74 43.2736 173.804 41.1176H178.97C178.27 43.2456 176.996 44.9956 175.148 46.3676C173.328 47.7116 171.06 48.3836 168.344 48.3836C166.132 48.3836 164.144 47.8936 162.38 46.9136C160.644 45.9056 159.272 44.5056 158.264 42.7136C157.284 40.8936 156.794 38.7936 156.794 36.4136C156.794 34.0336 157.27 31.9476 158.222 30.1556C159.202 28.3356 160.56 26.9356 162.296 25.9556C164.06 24.9756 166.076 24.4856 168.344 24.4856C170.528 24.4856 172.474 24.9616 174.182 25.9136C175.89 26.8656 177.22 28.2096 178.172 29.9456C179.124 31.6536 179.6 33.6276 179.6 35.8676ZM174.602 34.3556C174.574 32.5916 173.944 31.1776 172.712 30.1136C171.48 29.0496 169.954 28.5176 168.134 28.5176C166.482 28.5176 165.068 29.0496 163.892 30.1136C162.716 31.1496 162.016 32.5636 161.792 34.3556H174.602Z" fill="#101828"/>
<path d="M189.1 28.2236C189.8 27.0476 190.724 26.1376 191.872 25.4936C193.048 24.8216 194.434 24.4856 196.03 24.4856V29.4416H194.812C192.936 29.4416 191.508 29.9176 190.528 30.8696C189.576 31.8216 189.1 33.4736 189.1 35.8256V48.0056H184.312V24.8636H189.1V28.2236Z" fill="#101828"/>
<path d="M208.831 48.3836C207.011 48.3836 205.373 48.0616 203.917 47.4176C202.489 46.7456 201.355 45.8496 200.515 44.7296C199.675 43.5816 199.227 42.3076 199.171 40.9076H204.127C204.211 41.8876 204.673 42.7136 205.513 43.3856C206.381 44.0296 207.459 44.3516 208.747 44.3516C210.091 44.3516 211.127 44.0996 211.855 43.5956C212.611 43.0636 212.989 42.3916 212.989 41.5796C212.989 40.7116 212.569 40.0676 211.729 39.6476C210.917 39.2276 209.615 38.7656 207.823 38.2616C206.087 37.7856 204.673 37.3236 203.581 36.8756C202.489 36.4276 201.537 35.7416 200.725 34.8176C199.941 33.8936 199.549 32.6756 199.549 31.1636C199.549 29.9316 199.913 28.8116 200.641 27.8036C201.369 26.7676 202.405 25.9556 203.749 25.3676C205.121 24.7796 206.689 24.4856 208.453 24.4856C211.085 24.4856 213.199 25.1576 214.795 26.5016C216.419 27.8176 217.287 29.6236 217.399 31.9196H212.611C212.527 30.8836 212.107 30.0576 211.351 29.4416C210.595 28.8256 209.573 28.5176 208.285 28.5176C207.025 28.5176 206.059 28.7556 205.387 29.2316C204.715 29.7076 204.379 30.3376 204.379 31.1216C204.379 31.7376 204.603 32.2556 205.051 32.6756C205.499 33.0956 206.045 33.4316 206.689 33.6836C207.333 33.9076 208.285 34.2016 209.545 34.5656C211.225 35.0136 212.597 35.4756 213.661 35.9516C214.753 36.3996 215.691 37.0716 216.475 37.9676C217.259 38.8636 217.665 40.0536 217.693 41.5376C217.693 42.8536 217.329 44.0296 216.601 45.0656C215.873 46.1016 214.837 46.9136 213.493 47.5016C212.177 48.0896 210.623 48.3836 208.831 48.3836Z" fill="#101828"/>
</svg>
