<svg width="253" height="72" viewBox="0 0 253 72" fill="none" xmlns="http://www.w3.org/2000/svg">
<path d="M0.692993 28.8H15.093V43.2H0.692993V28.8Z" fill="#039855"/>
<path d="M43.8929 43.2001H29.4929V28.8001H43.8929V43.2001Z" fill="#027A48"/>
<path d="M15.093 28.8L29.493 14.4L29.4929 28.8001L15.093 43.2V28.8Z" fill="#A6F4C5"/>
<path d="M29.4929 43.2001L15.093 57.5999L15.093 43.2L29.4929 28.8001V43.2001Z" fill="#6CE9A6"/>
<path d="M0.692993 28.8L29.4929 0L29.493 14.4L15.093 28.8H0.692993Z" fill="#32D583"/>
<path d="M43.8929 43.2001L15.093 72L15.093 57.5999L29.4929 43.2001H43.8929Z" fill="#12B76A"/>
<path d="M75.255 51.42C72.987 51.42 70.789 51.098 68.661 50.454C66.561 49.81 64.895 48.956 63.663 47.892L65.553 43.65C66.757 44.602 68.227 45.386 69.963 46.002C71.727 46.59 73.491 46.884 75.255 46.884C77.439 46.884 79.063 46.534 80.127 45.834C81.219 45.134 81.765 44.21 81.765 43.062C81.765 42.222 81.457 41.536 80.841 41.004C80.253 40.444 79.497 40.01 78.573 39.702C77.649 39.394 76.389 39.044 74.793 38.652C72.553 38.12 70.733 37.588 69.333 37.056C67.961 36.524 66.771 35.698 65.763 34.578C64.783 33.43 64.293 31.89 64.293 29.958C64.293 28.334 64.727 26.864 65.595 25.548C66.491 24.204 67.821 23.14 69.585 22.356C71.377 21.572 73.561 21.18 76.137 21.18C77.929 21.18 79.693 21.404 81.429 21.852C83.165 22.3 84.663 22.944 85.923 23.784L84.201 28.026C82.913 27.27 81.569 26.696 80.169 26.304C78.769 25.912 77.411 25.716 76.095 25.716C73.939 25.716 72.329 26.08 71.265 26.808C70.229 27.536 69.711 28.502 69.711 29.706C69.711 30.546 70.005 31.232 70.593 31.764C71.209 32.296 71.979 32.716 72.903 33.024C73.827 33.332 75.087 33.682 76.683 34.074C78.867 34.578 80.659 35.11 82.059 35.67C83.459 36.202 84.649 37.028 85.629 38.148C86.637 39.268 87.141 40.78 87.141 42.684C87.141 44.308 86.693 45.778 85.797 47.094C84.929 48.41 83.599 49.46 81.807 50.244C80.015 51.028 77.831 51.42 75.255 51.42Z" fill="#101828"/>
<path d="M92.051 28.572H97.301V51H92.051V28.572ZM94.697 24.876C93.745 24.876 92.947 24.582 92.303 23.994C91.659 23.378 91.337 22.622 91.337 21.726C91.337 20.83 91.659 20.088 92.303 19.5C92.947 18.884 93.745 18.576 94.697 18.576C95.649 18.576 96.447 18.87 97.091 19.458C97.735 20.018 98.057 20.732 98.057 21.6C98.057 22.524 97.735 23.308 97.091 23.952C96.475 24.568 95.677 24.876 94.697 24.876Z" fill="#101828"/>
<path d="M111.122 51.294C109.302 51.294 107.524 51.056 105.788 50.58C104.052 50.104 102.666 49.502 101.63 48.774L103.646 44.784C104.654 45.456 105.858 46.002 107.258 46.422C108.686 46.814 110.086 47.01 111.458 47.01C114.594 47.01 116.162 46.184 116.162 44.532C116.162 43.748 115.756 43.202 114.944 42.894C114.16 42.586 112.886 42.292 111.122 42.012C109.274 41.732 107.762 41.41 106.586 41.046C105.438 40.682 104.43 40.052 103.562 39.156C102.722 38.232 102.302 36.958 102.302 35.334C102.302 33.206 103.184 31.512 104.948 30.252C106.74 28.964 109.148 28.32 112.172 28.32C113.712 28.32 115.252 28.502 116.792 28.866C118.332 29.202 119.592 29.664 120.572 30.252L118.556 34.242C116.652 33.122 114.51 32.562 112.13 32.562C110.59 32.562 109.414 32.8 108.602 33.276C107.818 33.724 107.426 34.326 107.426 35.082C107.426 35.922 107.846 36.524 108.686 36.888C109.554 37.224 110.884 37.546 112.676 37.854C114.468 38.134 115.938 38.456 117.086 38.82C118.234 39.184 119.214 39.8 120.026 40.668C120.866 41.536 121.286 42.768 121.286 44.364C121.286 46.464 120.376 48.144 118.556 49.404C116.736 50.664 114.258 51.294 111.122 51.294Z" fill="#101828"/>
<path d="M146.397 28.572L135.897 52.806C134.917 55.242 133.727 56.95 132.327 57.93C130.927 58.938 129.233 59.442 127.245 59.442C126.125 59.442 125.019 59.26 123.927 58.896C122.835 58.532 121.939 58.028 121.239 57.384L123.339 53.52C123.843 53.996 124.431 54.374 125.103 54.654C125.803 54.934 126.503 55.074 127.203 55.074C128.127 55.074 128.883 54.836 129.471 54.36C130.087 53.884 130.647 53.086 131.151 51.966L131.529 51.084L121.743 28.572H127.203L134.259 45.162L141.357 28.572H146.397Z" fill="#101828"/>
<path d="M162.11 28.32C164.294 28.32 166.24 28.796 167.948 29.748C169.684 30.7 171.042 32.044 172.022 33.78C173.002 35.516 173.492 37.518 173.492 39.786C173.492 42.054 173.002 44.07 172.022 45.834C171.042 47.57 169.684 48.914 167.948 49.866C166.24 50.818 164.294 51.294 162.11 51.294C159.086 51.294 156.692 50.286 154.928 48.27V59.148H149.678V28.572H154.676V31.512C155.544 30.448 156.608 29.65 157.868 29.118C159.156 28.586 160.57 28.32 162.11 28.32ZM161.522 46.8C163.454 46.8 165.036 46.156 166.268 44.868C167.528 43.58 168.158 41.886 168.158 39.786C168.158 37.686 167.528 35.992 166.268 34.704C165.036 33.416 163.454 32.772 161.522 32.772C160.262 32.772 159.128 33.066 158.12 33.654C157.112 34.214 156.314 35.026 155.726 36.09C155.138 37.154 154.844 38.386 154.844 39.786C154.844 41.186 155.138 42.418 155.726 43.482C156.314 44.546 157.112 45.372 158.12 45.96C159.128 46.52 160.262 46.8 161.522 46.8Z" fill="#101828"/>
<path d="M191.197 28.32C194.025 28.32 196.293 29.146 198.001 30.798C199.709 32.45 200.563 34.9 200.563 38.148V51H195.313V38.82C195.313 36.86 194.851 35.39 193.927 34.41C193.003 33.402 191.687 32.898 189.979 32.898C188.047 32.898 186.521 33.486 185.401 34.662C184.281 35.81 183.721 37.476 183.721 39.66V51H178.471V19.836H183.721V31.176C184.589 30.252 185.653 29.552 186.913 29.076C188.201 28.572 189.629 28.32 191.197 28.32Z" fill="#101828"/>
<path d="M228.937 28.572V51H223.939V48.144C223.099 49.152 222.049 49.936 220.789 50.496C219.529 51.028 218.171 51.294 216.715 51.294C213.719 51.294 211.353 50.468 209.617 48.816C207.909 47.136 207.055 44.658 207.055 41.382V28.572H212.305V40.668C212.305 42.684 212.753 44.196 213.649 45.204C214.573 46.184 215.875 46.674 217.555 46.674C219.431 46.674 220.915 46.1 222.007 44.952C223.127 43.776 223.687 42.096 223.687 39.912V28.572H228.937Z" fill="#101828"/>
<path d="M242.741 51.294C240.921 51.294 239.143 51.056 237.407 50.58C235.671 50.104 234.285 49.502 233.249 48.774L235.265 44.784C236.273 45.456 237.477 46.002 238.877 46.422C240.305 46.814 241.705 47.01 243.077 47.01C246.213 47.01 247.781 46.184 247.781 44.532C247.781 43.748 247.375 43.202 246.563 42.894C245.779 42.586 244.505 42.292 242.741 42.012C240.893 41.732 239.381 41.41 238.205 41.046C237.057 40.682 236.049 40.052 235.181 39.156C234.341 38.232 233.921 36.958 233.921 35.334C233.921 33.206 234.803 31.512 236.567 30.252C238.359 28.964 240.767 28.32 243.791 28.32C245.331 28.32 246.871 28.502 248.411 28.866C249.951 29.202 251.211 29.664 252.191 30.252L250.175 34.242C248.271 33.122 246.129 32.562 243.749 32.562C242.209 32.562 241.033 32.8 240.221 33.276C239.437 33.724 239.045 34.326 239.045 35.082C239.045 35.922 239.465 36.524 240.305 36.888C241.173 37.224 242.503 37.546 244.295 37.854C246.087 38.134 247.557 38.456 248.705 38.82C249.853 39.184 250.833 39.8 251.645 40.668C252.485 41.536 252.905 42.768 252.905 44.364C252.905 46.464 251.995 48.144 250.175 49.404C248.355 50.664 245.877 51.294 242.741 51.294Z" fill="#101828"/>
</svg>
