<svg width="240" height="66" viewBox="0 0 240 66" fill="none" xmlns="http://www.w3.org/2000/svg">
<path d="M33.4548 0C15.2294 0 0.454834 14.7746 0.454834 33C0.454834 51.2254 15.2294 66 33.4548 66C49.8064 66 63.3801 54.1074 65.9986 38.5H65.7617C63.3195 47.9888 54.7059 55 44.4548 55C32.3046 55 22.4548 45.1503 22.4548 33C22.4548 20.8497 32.3046 11 44.4548 11C54.7059 11 63.3195 18.0112 65.7617 27.5H65.9986C63.3801 11.8926 49.8064 0 33.4548 0Z" fill="#A4BCFD"/>
<path d="M0.454834 33C0.454834 14.7746 15.2294 0 33.4548 0C49.8064 0 63.3801 11.8926 65.9986 27.5H43.7617C41.3195 18.0112 32.7059 11 22.4548 11C10.3046 11 0.454834 20.8497 0.454834 33Z" fill="#3538CD"/>
<path d="M0.454834 33C0.454834 51.2254 15.2294 66 33.4548 66C49.8064 66 63.3801 54.1074 65.9986 38.5H43.7617C41.3195 47.9888 32.7059 55 22.4548 55C10.3046 55 0.454834 45.1503 0.454834 33Z" fill="#3538CD"/>
<path d="M113.613 27.7607C112.674 20.9744 107.453 17.0369 100.682 17.0369C92.7027 17.0369 86.692 22.8537 86.692 32.7273C86.692 42.5859 92.6281 48.4176 100.682 48.4176C107.946 48.4176 112.763 43.7195 113.613 37.8878L108.035 37.858C107.334 41.4375 104.411 43.451 100.757 43.451C95.805 43.451 92.2553 39.7372 92.2553 32.7273C92.2553 25.8366 95.7751 22.0036 100.772 22.0036C104.485 22.0036 107.394 24.1065 108.035 27.7607H113.613Z" fill="#101828"/>
<path d="M125.034 48.4624C128.629 48.4624 130.776 46.777 131.761 44.853H131.94V48H137.13V32.6676C137.13 26.6122 132.193 24.7926 127.823 24.7926C123.006 24.7926 119.307 26.9403 118.114 31.1165L123.155 31.8324C123.692 30.2663 125.213 28.924 127.853 28.924C130.359 28.924 131.731 30.2067 131.731 32.4588V32.5483C131.731 34.0994 130.105 34.174 126.063 34.6065C121.619 35.0838 117.368 36.4112 117.368 41.5717C117.368 46.076 120.664 48.4624 125.034 48.4624ZM126.436 44.495C124.184 44.495 122.573 43.4659 122.573 41.4822C122.573 39.4091 124.378 38.544 126.794 38.201C128.211 38.0071 131.045 37.6491 131.746 37.0824V39.782C131.746 42.3324 129.688 44.495 126.436 44.495Z" fill="#101828"/>
<path d="M153.999 25.0909H149.479V19.6023H144.08V25.0909H140.829V29.267H144.08V42.0043C144.051 46.3146 147.183 48.4325 151.239 48.3132C152.776 48.2685 153.835 47.9702 154.416 47.7763L153.506 43.5554C153.208 43.63 152.597 43.7642 151.926 43.7642C150.568 43.7642 149.479 43.2869 149.479 41.1094V29.267H153.999V25.0909Z" fill="#101828"/>
<path d="M165.106 48.4624C168.701 48.4624 170.849 46.777 171.833 44.853H172.012V48H177.202V32.6676C177.202 26.6122 172.266 24.7926 167.896 24.7926C163.078 24.7926 159.379 26.9403 158.186 31.1165L163.227 31.8324C163.764 30.2663 165.285 28.924 167.925 28.924C170.431 28.924 171.803 30.2067 171.803 32.4588V32.5483C171.803 34.0994 170.177 34.174 166.136 34.6065C161.691 35.0838 157.44 36.4112 157.44 41.5717C157.44 46.076 160.736 48.4624 165.106 48.4624ZM166.508 44.495C164.256 44.495 162.646 43.4659 162.646 41.4822C162.646 39.4091 164.45 38.544 166.866 38.201C168.283 38.0071 171.117 37.6491 171.818 37.0824V39.782C171.818 42.3324 169.76 44.495 166.508 44.495Z" fill="#101828"/>
<path d="M188.03 17.4545H182.631V48H188.03V17.4545Z" fill="#101828"/>
<path d="M203.575 48.4474C210.287 48.4474 214.553 43.7195 214.553 36.6349C214.553 29.5355 210.287 24.7926 203.575 24.7926C196.864 24.7926 192.598 29.5355 192.598 36.6349C192.598 43.7195 196.864 48.4474 203.575 48.4474ZM203.605 44.1222C199.891 44.1222 198.072 40.8111 198.072 36.62C198.072 32.429 199.891 29.0732 203.605 29.0732C207.259 29.0732 209.079 32.429 209.079 36.62C209.079 40.8111 207.259 44.1222 203.605 44.1222Z" fill="#101828"/>
<path d="M229.098 57.0682C235.288 57.0682 239.852 54.2344 239.852 48.3729V25.0909H234.527V28.8793H234.229C233.409 27.2237 231.693 24.7926 227.652 24.7926C222.357 24.7926 218.196 28.9389 218.196 36.4709C218.196 43.9432 222.357 47.6719 227.637 47.6719C231.559 47.6719 233.394 45.5689 234.229 43.8835H234.497V48.2237C234.497 51.5945 232.26 52.9815 229.188 52.9815C225.936 52.9815 224.505 51.4453 223.848 50.103L218.986 51.2812C219.97 54.4879 223.267 57.0682 229.098 57.0682ZM229.143 43.4361C225.578 43.4361 223.699 40.6619 223.699 36.4411C223.699 32.2798 225.549 29.2223 229.143 29.2223C232.618 29.2223 234.527 32.1009 234.527 36.4411C234.527 40.8111 232.588 43.4361 229.143 43.4361Z" fill="#101828"/>
</svg>
