<svg width="275" height="66" viewBox="0 0 275 66" fill="none" xmlns="http://www.w3.org/2000/svg">
<path d="M23.7197 47.1429C36.7378 47.1429 47.2911 36.5896 47.2911 23.5714C47.2911 22.096 47.1555 20.6523 46.8962 19.252C45.4959 18.9927 44.0522 18.8571 42.5768 18.8571C29.5587 18.8571 19.0054 29.4104 19.0054 42.4286C19.0054 43.904 19.1409 45.3477 19.4002 46.748C20.8005 47.0073 22.2443 47.1429 23.7197 47.1429Z" fill="#175CD3"/>
<path fill-rule="evenodd" clip-rule="evenodd" d="M19.4002 46.748C8.44499 44.7191 0.148224 35.1142 0.148224 23.5714C0.148224 10.5533 10.7015 0 23.7197 0C35.2624 0 44.8673 8.29676 46.8962 19.252C45.4959 18.9927 44.0522 18.8571 42.5768 18.8571C29.5587 18.8571 19.0054 29.4104 19.0054 42.4286C19.0054 43.904 19.1409 45.3477 19.4002 46.748Z" fill="#101828"/>
<path fill-rule="evenodd" clip-rule="evenodd" d="M23.7197 47.1429C36.7378 47.1429 47.2911 36.5896 47.2911 23.5714C47.2911 22.096 47.1555 20.6523 46.8962 19.252C57.8515 21.2809 66.1482 30.8857 66.1482 42.4285C66.1482 55.4466 55.5949 65.9999 42.5767 65.9999C31.034 65.9999 21.4291 57.7032 19.4002 46.748C20.8005 47.0073 22.2443 47.1429 23.7197 47.1429Z" fill="#2E90FA"/>
<path d="M111.49 40.356C110.65 43.072 109.18 45.102 107.08 46.446C104.98 47.762 102.53 48.42 99.7302 48.42C96.9862 48.42 94.6062 47.846 92.5902 46.698C90.6022 45.55 89.0623 43.912 87.9703 41.784C86.9062 39.656 86.3743 37.108 86.3743 34.14C86.3743 31.172 86.9202 28.624 88.0123 26.496C89.1043 24.368 90.6442 22.73 92.6322 21.582C94.6202 20.434 96.9583 19.86 99.6462 19.86C102.474 19.86 104.896 20.462 106.912 21.666C108.956 22.842 110.356 24.634 111.112 27.042L105.862 29.268C105.386 27.588 104.658 26.398 103.678 25.698C102.698 24.97 101.438 24.606 99.8982 24.606C97.6022 24.606 95.7682 25.432 94.3962 27.084C93.0522 28.708 92.3802 31.06 92.3802 34.14C92.3802 37.192 93.0242 39.544 94.3122 41.196C95.6003 42.848 97.4622 43.674 99.8982 43.674C101.41 43.674 102.712 43.268 103.804 42.456C104.924 41.644 105.708 40.412 106.156 38.76L111.49 40.356Z" fill="#101828"/>
<path d="M118.74 23.976C116.36 23.976 115.17 22.954 115.17 20.91C115.17 18.838 116.36 17.802 118.74 17.802C121.12 17.802 122.31 18.838 122.31 20.91C122.31 22.954 121.12 23.976 118.74 23.976ZM121.596 27V48H115.842V27H121.596Z" fill="#101828"/>
<path d="M127.696 48V27H132.694L133.072 31.116C133.604 29.688 134.402 28.582 135.466 27.798C136.558 26.986 137.93 26.58 139.582 26.58C140.562 26.58 141.318 26.734 141.85 27.042L141.178 31.872C140.898 31.788 140.548 31.718 140.128 31.662C139.736 31.578 139.218 31.536 138.574 31.536C137.706 31.536 136.88 31.746 136.096 32.166C135.34 32.558 134.71 33.174 134.206 34.014C133.702 34.826 133.45 35.862 133.45 37.122V48H127.696Z" fill="#101828"/>
<path d="M154.538 26.58C157.338 26.58 159.508 27.182 161.048 28.386C162.616 29.59 163.652 31.046 164.156 32.754L158.78 34.686C158.22 32.138 156.834 30.864 154.622 30.864C153.026 30.864 151.78 31.424 150.884 32.544C150.016 33.664 149.582 35.33 149.582 37.542C149.582 39.782 150.03 41.448 150.926 42.54C151.85 43.604 153.096 44.136 154.664 44.136C157.1 44.136 158.556 42.89 159.032 40.398L164.24 42.078C163.764 43.954 162.7 45.48 161.048 46.656C159.424 47.832 157.31 48.42 154.706 48.42C152.522 48.42 150.604 47.986 148.952 47.118C147.328 46.25 146.068 45.004 145.172 43.38C144.276 41.756 143.828 39.796 143.828 37.5C143.828 35.204 144.276 33.244 145.172 31.62C146.096 29.996 147.356 28.75 148.952 27.882C150.576 27.014 152.438 26.58 154.538 26.58Z" fill="#101828"/>
<path d="M178.287 26.58C180.387 26.58 182.249 27.014 183.873 27.882C185.497 28.75 186.757 29.996 187.653 31.62C188.577 33.244 189.039 35.204 189.039 37.5C189.039 39.796 188.577 41.756 187.653 43.38C186.757 45.004 185.497 46.25 183.873 47.118C182.249 47.986 180.387 48.42 178.287 48.42C176.159 48.42 174.283 47.986 172.659 47.118C171.063 46.25 169.803 45.004 168.879 43.38C167.983 41.756 167.535 39.796 167.535 37.5C167.535 35.204 167.983 33.244 168.879 31.62C169.803 29.996 171.063 28.75 172.659 27.882C174.283 27.014 176.159 26.58 178.287 26.58ZM178.287 30.864C176.719 30.864 175.487 31.424 174.591 32.544C173.723 33.636 173.289 35.288 173.289 37.5C173.289 39.712 173.723 41.378 174.591 42.498C175.487 43.59 176.719 44.136 178.287 44.136C179.827 44.136 181.031 43.59 181.899 42.498C182.795 41.378 183.243 39.712 183.243 37.5C183.243 35.288 182.795 33.636 181.899 32.544C181.031 31.424 179.827 30.864 178.287 30.864Z" fill="#101828"/>
<path d="M203.43 26.58C205.53 26.58 207.392 27.014 209.016 27.882C210.64 28.75 211.9 29.996 212.796 31.62C213.72 33.244 214.182 35.204 214.182 37.5C214.182 39.796 213.72 41.756 212.796 43.38C211.9 45.004 210.64 46.25 209.016 47.118C207.392 47.986 205.53 48.42 203.43 48.42C201.302 48.42 199.426 47.986 197.802 47.118C196.206 46.25 194.946 45.004 194.022 43.38C193.126 41.756 192.678 39.796 192.678 37.5C192.678 35.204 193.126 33.244 194.022 31.62C194.946 29.996 196.206 28.75 197.802 27.882C199.426 27.014 201.302 26.58 203.43 26.58ZM203.43 30.864C201.862 30.864 200.63 31.424 199.734 32.544C198.866 33.636 198.432 35.288 198.432 37.5C198.432 39.712 198.866 41.378 199.734 42.498C200.63 43.59 201.862 44.136 203.43 44.136C204.97 44.136 206.174 43.59 207.042 42.498C207.938 41.378 208.386 39.712 208.386 37.5C208.386 35.288 207.938 33.636 207.042 32.544C206.174 31.424 204.97 30.864 203.43 30.864Z" fill="#101828"/>
<path d="M224.666 17.802V41.532C224.666 42.512 224.834 43.198 225.17 43.59C225.506 43.982 226.066 44.178 226.85 44.178C227.326 44.178 227.718 44.15 228.026 44.094C228.334 44.038 228.726 43.926 229.202 43.758L228.698 47.538C228.222 47.818 227.62 48.028 226.892 48.168C226.192 48.336 225.492 48.42 224.792 48.42C222.748 48.42 221.25 47.93 220.298 46.95C219.374 45.942 218.912 44.346 218.912 42.162V17.802H224.666Z" fill="#101828"/>
<path d="M242.153 48.42C238.849 48.42 236.203 47.468 234.215 45.564C232.227 43.632 231.233 40.944 231.233 37.5C231.233 35.204 231.681 33.244 232.577 31.62C233.473 29.996 234.719 28.75 236.315 27.882C237.939 27.014 239.787 26.58 241.859 26.58C243.987 26.58 245.793 27.014 247.277 27.882C248.761 28.722 249.895 29.884 250.679 31.368C251.463 32.824 251.855 34.49 251.855 36.366C251.855 36.926 251.841 37.458 251.813 37.962C251.785 38.466 251.743 38.914 251.687 39.306H236.861C237.085 40.93 237.645 42.148 238.541 42.96C239.465 43.744 240.655 44.136 242.111 44.136C243.343 44.136 244.337 43.898 245.093 43.422C245.849 42.946 246.437 42.288 246.857 41.448L251.435 43.212C250.763 44.864 249.587 46.152 247.907 47.076C246.227 47.972 244.309 48.42 242.153 48.42ZM241.817 30.822C239.101 30.822 237.463 32.32 236.903 35.316H246.353C246.185 33.86 245.709 32.754 244.925 31.998C244.169 31.214 243.133 30.822 241.817 30.822Z" fill="#101828"/>
<path d="M265.131 48.42C263.003 48.42 261.057 48.042 259.293 47.286C257.557 46.53 256.143 45.466 255.051 44.094L258.369 40.734C259.041 41.742 259.937 42.568 261.057 43.212C262.177 43.856 263.507 44.178 265.047 44.178C266.139 44.178 267.007 44.024 267.651 43.716C268.323 43.38 268.659 42.862 268.659 42.162C268.659 41.714 268.505 41.336 268.197 41.028C267.889 40.692 267.273 40.426 266.349 40.23L262.653 39.474C260.217 38.97 258.481 38.214 257.445 37.206C256.437 36.17 255.933 34.84 255.933 33.216C255.933 32.068 256.269 30.99 256.941 29.982C257.641 28.974 258.677 28.162 260.049 27.546C261.421 26.902 263.129 26.58 265.173 26.58C269.429 26.58 272.481 27.882 274.329 30.486L270.885 33.846C270.269 32.866 269.457 32.124 268.449 31.62C267.469 31.088 266.433 30.822 265.341 30.822C262.877 30.822 261.645 31.508 261.645 32.88C261.645 33.328 261.841 33.72 262.233 34.056C262.625 34.364 263.339 34.63 264.375 34.854L268.659 35.736C270.731 36.156 272.215 36.87 273.111 37.878C274.007 38.858 274.455 40.048 274.455 41.448C274.455 43.464 273.643 45.13 272.019 46.446C270.423 47.762 268.127 48.42 265.131 48.42Z" fill="#101828"/>
</svg>
